<?xml version="1.0" standalone="no"?>
<!DOCTYPE svg PUBLIC "-//W3C//DTD SVG 20010904//EN"
 "http://www.w3.org/TR/2001/REC-SVG-20010904/DTD/svg10.dtd">
<svg version="1.0" xmlns="http://www.w3.org/2000/svg"
 width="1080.000000pt" height="1350.000000pt" viewBox="0 0 1080.000000 1350.000000"
 preserveAspectRatio="xMidYMid meet">

<g transform="translate(0.000000,1350.000000) scale(0.100000,-0.100000)"
fill="#000000" stroke="none">
<path d="M7608 10623 c7 -3 16 -2 19 1 4 3 -2 6 -13 5 -11 0 -14 -3 -6 -6z"/>
<path d="M7451 10579 c-12 -11 -21 -15 -21 -8 0 7 -8 6 -22 -5 -13 -9 -56 -32
-96 -52 -81 -39 -114 -76 -164 -180 -19 -42 -32 -91 -40 -153 -8 -61 -15 -91
-24 -91 -7 0 -16 -5 -20 -12 -5 -8 -2 -9 9 -5 22 8 21 -4 -3 -46 -25 -41 -36
-117 -22 -144 13 -23 4 -66 -11 -56 -6 3 -7 1 -3 -5 4 -7 16 -12 26 -12 10 0
22 -4 25 -10 10 -16 -11 -12 -72 16 -32 15 -74 28 -93 30 -28 3 -15 -5 58 -40
84 -41 121 -66 72 -51 -16 5 -20 2 -20 -15 0 -14 -11 -26 -32 -35 -24 -10 -28
-14 -13 -15 11 0 37 9 58 20 44 24 47 24 47 6 0 -8 11 -27 24 -43 16 -19 23
-39 21 -62 -3 -49 12 -121 32 -150 20 -30 20 -29 22 -83 1 -35 4 -40 12 -25 5
9 16 17 23 17 8 0 24 9 37 20 l24 20 -40 -6 c-36 -5 -41 -4 -42 15 -1 12 3 21
8 21 6 0 8 12 4 29 -10 46 8 66 81 90 71 23 115 21 146 -6 15 -13 20 -13 43 4
37 26 26 62 -40 136 -37 40 -54 68 -51 79 2 10 0 15 -6 12 -5 -3 -20 4 -34 17
-24 22 -35 14 -12 -9 9 -9 9 -12 -1 -12 -8 0 -11 -7 -8 -19 6 -26 -24 -34
-132 -36 -114 -3 -138 22 -88 89 39 51 43 60 23 53 -14 -5 -15 -3 -6 12 7 14
6 20 -4 24 -11 4 -11 15 -3 51 7 30 13 42 19 34 6 -10 8 -9 8 4 0 9 5 20 11
23 7 5 8 -5 4 -29 -5 -26 -4 -36 5 -36 10 0 10 -3 0 -15 -8 -10 -9 -15 -2 -15
18 0 32 36 30 79 -1 28 -6 41 -15 41 -11 0 -8 9 8 32 l23 32 -24 -17 c-30 -21
-80 -23 -80 -3 0 7 34 28 75 46 90 39 95 51 6 14 -35 -14 -66 -23 -68 -20 -10
9 18 100 43 143 32 55 110 123 187 160 91 45 107 49 107 24 0 -11 15 -33 33
-50 17 -17 40 -39 50 -48 17 -17 18 -17 11 1 -7 18 -6 19 14 4 12 -8 36 -35
52 -59 17 -24 84 -94 148 -156 88 -84 111 -111 92 -108 -14 3 -7 -2 15 -9 22
-8 34 -15 27 -15 -7 -1 -11 -4 -9 -8 3 -5 -45 -7 -106 -7 l-112 2 93 -8 c120
-10 147 -21 146 -59 0 -16 -6 -42 -12 -57 -17 -46 -22 -93 -11 -100 6 -3 8
-17 5 -30 -4 -14 -2 -24 4 -24 5 0 10 6 10 13 0 8 3 7 10 -3 5 -8 5 -19 1 -25
-4 -5 -11 -19 -15 -29 -5 -16 -4 -17 9 -6 8 6 17 27 21 46 6 33 6 33 23 13 16
-20 17 -20 13 20 -3 26 0 41 7 41 6 0 11 -8 12 -17 1 -12 3 -10 8 6 10 36 27
36 35 1 4 -22 1 -36 -9 -47 -17 -17 -20 -43 -5 -43 6 0 15 11 20 25 10 27 25
33 33 13 3 -7 6 -1 6 14 1 14 -4 28 -9 30 -13 4 -1 68 13 68 5 0 7 -12 4 -29
-7 -33 1 -45 19 -30 8 7 14 7 19 -1 3 -5 11 -10 17 -10 6 0 3 11 -6 25 -21 31
-21 32 9 37 37 7 59 -13 51 -46 l-7 -27 21 21 c21 21 40 26 40 10 0 -22 -98
-160 -133 -189 -44 -34 -118 -51 -142 -31 -8 7 -15 25 -15 41 0 17 -5 29 -12
29 -22 -1 -66 -46 -82 -84 -8 -20 -20 -36 -25 -36 -6 0 -18 -14 -27 -31 -32
-64 -213 -209 -259 -209 -8 0 -49 -13 -92 -29 -157 -58 -212 -73 -240 -66 -39
9 -53 23 -53 52 0 14 -16 57 -35 97 -19 40 -35 82 -35 94 0 11 -5 24 -11 27
-6 4 -8 13 -5 21 3 8 1 14 -4 14 -4 0 -11 13 -15 30 -4 16 -11 32 -16 35 -14
10 -10 68 7 93 9 13 11 22 4 22 -6 0 -16 -12 -22 -26 -18 -39 3 -138 51 -243
23 -49 47 -117 53 -151 12 -71 22 -78 133 -100 115 -22 179 -48 220 -90 l38
-39 -10 -60 c-5 -35 -6 -61 -1 -61 5 0 7 -3 4 -8 -2 -4 -1 -32 3 -62 6 -45 3
-67 -16 -118 -13 -34 -23 -72 -23 -83 0 -12 -23 -89 -51 -172 -48 -143 -58
-206 -33 -214 14 -5 40 81 64 211 30 163 37 185 66 196 31 12 54 34 54 52 0 7
12 41 27 75 26 58 30 62 54 57 18 -3 28 0 32 9 6 16 -16 66 -36 82 -7 6 -11
17 -11 25 1 8 2 27 3 43 1 17 7 27 17 27 8 0 13 4 10 9 -3 5 1 14 9 21 8 7 15
23 15 36 0 12 5 26 11 29 6 4 7 19 4 36 -4 19 -3 29 5 29 9 0 35 47 42 77 1 5
13 17 26 28 13 11 35 32 49 47 15 16 31 24 41 21 8 -4 13 -2 9 3 -3 5 7 37 23
69 16 33 30 66 30 73 0 15 20 16 20 1 0 -6 12 -26 26 -45 15 -19 22 -34 18
-34 -5 0 -10 -12 -10 -26 -1 -14 -10 -34 -20 -45 -11 -13 -13 -19 -4 -19 7 0
10 -6 5 -17 -11 -30 -11 -38 3 -36 6 2 12 -4 12 -13 0 -8 5 -12 11 -9 7 5 8
-5 3 -29 -8 -46 19 -122 47 -131 10 -4 19 -12 19 -20 0 -12 19 -25 48 -31 9
-2 11 4 6 19 -6 19 -5 20 8 10 8 -7 18 -10 22 -6 4 4 4 -1 0 -11 -5 -13 -4
-17 4 -12 6 4 12 -3 15 -16 l4 -23 10 25 c7 15 7 29 2 35 -15 16 -10 38 7 31
8 -3 22 0 29 8 8 7 40 16 73 20 44 5 65 13 82 31 13 13 45 32 72 41 36 12 55
26 73 52 13 21 40 53 60 72 63 59 110 177 94 232 -12 45 -11 145 2 183 14 37
-1 70 -88 203 -57 86 -78 106 -126 118 -35 8 -41 24 -60 145 -14 94 -16 98
-70 164 -85 103 -208 182 -324 208 -33 7 -28 0 15 -22 92 -47 210 -183 237
-274 12 -41 14 -77 9 -169 -7 -118 -7 -118 -37 -137 -31 -19 -31 -19 -61 2
-18 13 -25 22 -17 25 7 2 18 -1 24 -7 16 -16 37 -14 31 3 -3 8 -21 17 -39 20
-19 4 -47 17 -62 30 -15 13 -38 27 -51 31 -15 4 -21 12 -18 21 4 9 -2 14 -15
14 -29 0 -61 19 -53 32 5 7 2 8 -5 3 -17 -10 -86 58 -113 110 -35 68 -67 102
-182 199 -106 89 -177 139 -203 142 -6 1 -21 -7 -32 -17z m266 -201 c-3 -8 -6
-5 -6 6 -1 11 2 17 5 13 3 -3 4 -12 1 -19z m60 -80 c-3 -8 -6 -5 -6 6 -1 11 2
17 5 13 3 -3 4 -12 1 -19z m429 -362 c10 -8 17 -17 14 -19 -3 -3 -16 3 -30 13
-29 22 -14 27 16 6z m-810 -223 c27 -31 84 -108 84 -114 0 -4 -21 -2 -47 3
-65 12 -172 12 -206 -1 -15 -6 -27 -7 -27 -1 0 5 8 11 18 15 9 3 44 30 77 60
66 59 77 64 101 38z"/>
<path d="M6540 10512 c0 -4 11 -23 25 -42 14 -19 25 -46 25 -61 0 -15 4 -39
10 -53 6 -18 6 -26 -1 -26 -25 0 -50 24 -68 64 -11 23 -27 49 -35 56 -14 11
-14 8 -1 -30 9 -26 12 -48 6 -58 -7 -12 -11 -7 -20 20 -6 19 -26 48 -43 63
-20 18 -29 22 -25 12 8 -22 2 -21 -75 3 -83 26 -108 25 -173 -5 -38 -18 -55
-33 -59 -50 -4 -14 -15 -34 -26 -45 -11 -11 -21 -30 -22 -42 0 -13 -2 -27 -3
-33 -2 -5 -4 -14 -5 -20 -1 -5 -2 -13 -1 -17 0 -5 -4 -8 -10 -8 -6 0 -9 -6 -6
-13 3 -8 -9 -21 -29 -32 -41 -22 -42 -30 -6 -43 26 -9 27 -9 5 -16 -23 -7 -32
-26 -13 -26 6 0 10 -4 10 -10 0 -5 -7 -10 -16 -10 -13 0 -14 -3 -4 -15 10 -12
8 -16 -14 -25 -14 -5 -32 -7 -39 -4 -8 3 -20 -2 -27 -10 -10 -13 -8 -19 11
-35 22 -18 22 -20 7 -26 -13 -5 -16 -14 -11 -33 9 -36 9 -72 2 -109 -5 -22 -3
-33 5 -33 6 0 21 -3 34 -6 17 -5 22 -2 22 14 0 41 39 142 69 181 23 29 45 44
74 52 47 12 145 84 261 190 l78 72 28 -16 c32 -20 56 -14 66 15 4 15 12 18 30
14 13 -4 33 -2 44 4 19 10 19 13 5 40 -8 16 -15 40 -15 55 0 20 5 25 24 25 14
0 28 5 31 10 3 6 -4 10 -16 10 -23 0 -89 39 -89 53 0 4 -4 7 -10 7 -5 0 -10
-4 -10 -8z m-229 -73 c55 -19 64 -30 37 -45 -35 -20 -54 -17 -66 11 -12 26
-15 45 -8 45 1 0 18 -5 37 -11z m149 -52 c0 -4 -9 -3 -20 3 -11 6 -20 17 -20
25 0 12 4 12 20 -2 11 -10 20 -21 20 -26z m52 -72 c3 -13 1 -22 -3 -19 -9 5
-13 44 -5 44 2 0 6 -11 8 -25z"/>
<path d="M6640 10506 c0 -2 8 -10 18 -17 15 -13 16 -12 3 4 -13 16 -21 21 -21
13z"/>
<path d="M8186 10203 c-4 -27 -2 -64 4 -83 5 -19 11 -48 12 -65 1 -16 4 -5 7
25 7 68 2 170 -9 170 -4 0 -11 -21 -14 -47z"/>
<path d="M7395 10185 c-56 -16 -105 -38 -105 -47 0 -4 -12 -14 -27 -22 l-28
-15 40 -1 c22 0 35 -4 29 -8 -12 -8 -34 -46 -34 -59 0 -4 4 -2 9 6 5 8 16 11
25 8 17 -7 22 -42 7 -51 -26 -17 54 -125 82 -111 7 4 1 -3 -12 -14 -13 -12
-31 -21 -42 -21 -10 0 -21 -4 -24 -10 -10 -16 33 -12 68 6 18 9 44 30 60 45
15 16 36 30 47 30 25 2 28 3 65 19 17 7 50 21 75 31 l45 19 -40 -6 c-22 -4
-44 -10 -49 -15 -15 -14 -58 -11 -53 4 4 12 9 13 52 16 17 1 15 5 -15 31 -35
30 -53 33 -30 5 7 -8 8 -15 3 -15 -15 0 -32 22 -27 35 3 7 -2 15 -10 18 -15 6
-22 -10 -17 -37 3 -15 -21 -56 -32 -56 -6 0 -2 9 8 20 18 20 18 21 -3 41 -27
25 -28 32 -2 24 28 -9 25 5 -9 37 -20 19 -35 25 -52 22 -23 -5 -24 -5 -4 10
11 9 25 14 32 12 7 -3 13 -1 13 5 0 6 5 7 10 4 6 -3 10 2 10 12 0 11 3 14 8 7
4 -6 26 -14 50 -17 24 -3 51 -12 60 -20 10 -9 31 -20 47 -26 l30 -11 -30 25
c-71 59 -166 88 -230 70z m-45 -215 c0 -5 -2 -10 -4 -10 -3 0 -8 5 -11 10 -3
6 -1 10 4 10 6 0 11 -4 11 -10z"/>
<path d="M7280 10180 c-13 -9 -13 -10 0 -10 8 0 22 5 30 10 13 9 13 10 0 10
-8 0 -22 -5 -30 -10z"/>
<path d="M8133 10141 c-27 -23 -28 -27 -7 -35 10 -4 14 -1 12 6 -3 7 5 20 16
30 12 10 17 17 11 17 -5 0 -20 -8 -32 -18z"/>
<path d="M7440 10119 c0 -8 32 -29 44 -29 15 0 3 16 -19 27 -14 6 -25 7 -25 2z"/>
<path d="M8150 10096 c-13 -35 -11 -38 13 -21 15 10 16 18 9 32 -10 16 -12 15
-22 -11z"/>
<path d="M6962 10044 c-22 -15 -72 -109 -72 -134 0 -22 16 1 29 42 7 20 30 53
52 72 39 36 33 50 -9 20z"/>
<path d="M7241 9956 c-14 -16 -4 -46 15 -46 16 0 19 -27 3 -32 -12 -4 8 -58
22 -58 5 0 3 12 -3 26 -9 20 -9 27 1 34 11 6 11 15 1 44 -14 42 -24 51 -39 32z"/>
<path d="M7135 9940 c-3 -5 -1 -10 4 -10 6 0 11 5 11 10 0 6 -2 10 -4 10 -3 0
-8 -4 -11 -10z"/>
<path d="M5800 9784 c0 -8 -4 -13 -9 -10 -4 3 -6 -6 -3 -19 3 -19 8 -23 21
-16 25 12 104 -7 97 -25 -3 -8 1 -14 9 -14 8 0 15 -5 15 -11 0 -6 -7 -9 -15
-6 -8 4 -17 2 -20 -2 -3 -5 -14 -7 -25 -4 -11 3 -20 1 -20 -5 0 -5 9 -12 20
-15 11 -3 20 -13 20 -22 0 -11 -5 -15 -14 -12 -10 4 -13 1 -9 -9 3 -7 9 -14
14 -14 15 0 10 -47 -5 -53 -11 -4 -50 -66 -43 -67 53 -12 76 -10 80 7 11 39
49 285 44 289 -2 3 -21 8 -41 11 -27 4 -42 1 -55 -11 -18 -17 -20 -17 -31 3
-13 25 -30 28 -30 5z m75 -263 c3 -5 1 -12 -5 -16 -5 -3 -10 1 -10 9 0 18 6
21 15 7z"/>
<path d="M8169 9733 c-13 -16 -12 -17 4 -4 9 7 17 15 17 17 0 8 -8 3 -21 -13z"/>
<path d="M5681 9703 c8 -10 19 -21 26 -26 7 -4 10 -15 7 -25 -5 -14 -3 -14 6
2 11 16 8 22 -15 42 -33 28 -43 31 -24 7z"/>
<path d="M5620 9626 c0 -8 51 -13 56 -5 3 5 -9 9 -25 9 -17 0 -31 -2 -31 -4z"/>
<path d="M5698 9611 c-6 -10 -17 -17 -23 -15 -7 3 -18 -2 -25 -11 -10 -13 -9
-15 7 -15 23 0 48 19 56 43 8 23 0 22 -15 -2z"/>
<path d="M8016 9610 c-15 -5 -16 -9 -7 -14 7 -5 18 -3 24 3 14 14 6 20 -17 11z"/>
<path d="M5583 9475 c-9 -24 1 -27 15 -5 8 13 8 20 2 20 -6 0 -13 -7 -17 -15z"/>
<path d="M5600 9430 c0 -11 5 -20 10 -20 6 0 10 9 10 20 0 11 -4 20 -10 20 -5
0 -10 -9 -10 -20z"/>
<path d="M5693 9432 c-7 -4 6 -8 30 -9 62 -3 126 -23 138 -44 10 -20 -4 -28
-16 -9 -12 19 -22 10 -28 -25 -6 -38 -27 -65 -50 -65 -10 0 -13 -7 -10 -20 3
-11 9 -17 14 -14 5 3 6 11 2 17 -4 7 0 6 10 -2 11 -9 15 -21 11 -37 -9 -35 29
-32 55 5 17 24 51 155 51 196 0 12 -189 18 -207 7z m157 -153 c0 -3 -6 -19
-14 -33 -11 -22 -15 -24 -20 -11 -3 9 -3 22 1 27 3 7 1 8 -5 4 -7 -4 -12 -3
-12 3 0 10 16 18 38 18 6 0 12 -4 12 -8z"/>
<path d="M5760 9211 c0 -5 5 -13 10 -16 6 -3 10 -2 10 4 0 5 -4 13 -10 16 -5
3 -10 2 -10 -4z"/>
<path d="M5850 9183 c-8 -3 -22 -7 -30 -10 -8 -4 -17 -7 -20 -8 -123 -38 -153
-49 -143 -52 7 -3 37 3 67 11 69 20 73 20 86 -4 8 -15 8 -18 -3 -15 -7 3 -22
-3 -33 -14 -12 -10 -30 -21 -40 -25 -10 -3 9 -4 43 -2 35 1 65 5 68 8 5 5 25
111 21 114 0 1 -8 -1 -16 -3z m-1 -40 c0 -25 -1 -26 -9 -8 -12 27 -12 35 0 35
6 0 10 -12 9 -27z"/>
<path d="M5317 9108 c-4 -14 -9 -34 -13 -45 -3 -10 2 -5 11 10 9 16 15 36 13
45 -3 12 -6 9 -11 -10z"/>
<path d="M5556 9084 c-11 -8 -16 -14 -10 -14 13 0 39 18 34 24 -3 2 -14 -2
-24 -10z"/>
<path d="M5766 9035 c-68 -19 -79 -34 -21 -27 42 4 47 3 43 -14 -2 -11 -13
-20 -26 -22 -12 -2 -20 -8 -16 -13 3 -5 10 -7 15 -4 5 4 9 1 9 -4 0 -6 10 -12
23 -12 17 -1 18 -2 4 -6 -12 -3 -16 -10 -12 -24 7 -21 -10 -27 -18 -6 -3 7 -9
2 -15 -13 -11 -24 -13 -23 -16 12 -2 26 -20 23 -26 -4 -6 -25 -36 -36 -53 -19
-16 16 -27 13 -27 -8 0 -37 24 -44 87 -26 32 9 70 19 85 22 29 5 27 1 42 136
6 54 5 54 -78 32z"/>
<path d="M8270 8991 c0 -6 4 -13 10 -16 6 -3 7 1 4 9 -7 18 -14 21 -14 7z"/>
<path d="M7420 8948 c-88 -13 -140 -15 -169 -4 -21 7 -23 6 -17 -10 4 -11 9
-27 11 -37 2 -9 17 -36 34 -60 22 -31 30 -53 29 -83 0 -23 4 -50 10 -60 10
-18 11 -18 18 1 10 24 51 87 121 181 45 62 56 87 34 83 -3 -1 -35 -6 -71 -11z
m-110 -98 c0 -5 -2 -10 -4 -10 -3 0 -8 5 -11 10 -3 6 -1 10 4 10 6 0 11 -4 11
-10z m37 -96 c-3 -3 -12 -4 -19 -1 -8 3 -5 6 6 6 11 1 17 -2 13 -5z"/>
<path d="M7048 8928 c5 -5 16 -8 23 -6 8 3 3 7 -10 11 -17 4 -21 3 -13 -5z"/>
<path d="M7000 8926 c0 -2 7 -7 16 -10 8 -3 12 -2 9 4 -6 10 -25 14 -25 6z"/>
<path d="M6800 8896 c0 -7 7 -19 15 -26 13 -11 15 -8 15 14 0 16 -5 26 -15 26
-8 0 -15 -6 -15 -14z"/>
<path d="M5819 8856 c-3 -4 -39 -16 -80 -27 -109 -30 -219 -70 -219 -80 0 -5
6 -9 13 -9 25 0 15 -35 -19 -66 -42 -39 -44 -52 -4 -23 16 13 33 19 37 15 4
-4 3 -10 -2 -14 -6 -4 -10 -17 -11 -30 -1 -19 5 -16 41 23 24 25 46 45 51 45
5 0 15 4 23 9 10 7 9 14 -9 34 -13 15 -27 24 -32 21 -4 -3 -8 -2 -8 1 0 8 65
35 85 35 8 0 15 -6 15 -14 0 -9 7 -12 18 -10 11 4 23 -5 36 -27 10 -18 14 -29
8 -25 -6 3 -13 3 -16 -2 -6 -10 47 -62 63 -62 6 0 11 -6 11 -14 0 -25 -119
-92 -194 -110 -27 -7 -28 -6 -22 21 7 26 6 27 -9 12 -18 -18 -11 -69 10 -69
22 0 98 30 116 46 9 8 24 12 33 8 13 -5 17 -2 14 12 -2 13 3 19 15 17 10 0 23
9 29 22 7 15 16 21 25 18 12 -5 14 -1 9 14 -9 27 59 109 94 116 14 2 -3 2 -37
0 -69 -5 -69 -5 -75 80 -2 22 -6 36 -9 33z"/>
<path d="M7240 8855 c0 -5 5 -17 10 -25 5 -8 10 -10 10 -5 0 6 -5 17 -10 25
-5 8 -10 11 -10 5z"/>
<path d="M8332 8840 c0 -14 2 -19 5 -12 2 6 2 18 0 25 -3 6 -5 1 -5 -13z"/>
<path d="M5595 8840 c3 -5 8 -10 11 -10 2 0 4 5 4 10 0 6 -5 10 -11 10 -5 0
-7 -4 -4 -10z"/>
<path d="M5625 8830 c-3 -5 -1 -10 4 -10 6 0 11 5 11 10 0 6 -2 10 -4 10 -3 0
-8 -4 -11 -10z"/>
<path d="M6940 8830 c0 -12 26 -31 33 -23 12 11 7 21 -13 26 -11 3 -20 2 -20
-3z"/>
<path d="M6566 8803 c-12 -12 -6 -21 19 -25 14 -3 25 -2 25 3 0 12 -36 30 -44
22z"/>
<path d="M7037 8803 c-3 -5 6 -16 19 -26 24 -18 24 -18 24 8 0 18 -5 25 -19
25 -11 0 -22 -3 -24 -7z"/>
<path d="M8351 8784 c0 -11 3 -14 6 -6 3 7 2 16 -1 19 -3 4 -6 -2 -5 -13z"/>
<path d="M6315 8783 c-11 -3 -24 -9 -29 -14 -5 -5 5 -4 24 1 51 15 55 25 5 13z"/>
<path d="M5262 8760 c0 -14 2 -19 5 -12 2 6 2 18 0 25 -3 6 -5 1 -5 -13z"/>
<path d="M6452 8760 c0 -14 2 -19 5 -12 2 6 2 18 0 25 -3 6 -5 1 -5 -13z"/>
<path d="M8380 8759 c7 -11 14 -18 17 -15 8 8 -5 36 -17 36 -7 0 -7 -6 0 -21z"/>
<path d="M6012 8752 c-7 -5 16 -7 50 -4 85 5 96 10 23 11 -33 0 -66 -3 -73 -7z"/>
<path d="M6333 8752 c-25 -4 -32 -22 -9 -22 8 0 22 -7 30 -16 16 -16 41 -10
31 7 -8 12 22 12 46 -1 22 -12 25 -5 6 14 -14 14 -67 23 -104 18z"/>
<path d="M6263 8733 c9 -9 19 -14 23 -11 10 10 -6 28 -24 28 -15 0 -15 -1 1
-17z"/>
<path d="M7157 8713 c-7 -39 -34 -102 -49 -113 -4 -3 -3 -12 2 -20 5 -8 5 -19
1 -25 -15 -19 -19 -54 -7 -63 17 -14 66 -24 66 -13 0 5 -9 12 -19 16 -28 8
-32 31 -11 50 15 14 17 21 8 35 -9 14 -8 32 6 77 10 33 16 68 14 79 -2 11 -7
2 -11 -23z"/>
<path d="M6210 8736 c0 -2 7 -7 16 -10 8 -3 12 -2 9 4 -6 10 -25 14 -25 6z"/>
<path d="M8447 8719 c12 -12 25 -20 28 -17 3 3 -7 13 -22 23 l-28 17 22 -23z"/>
<path d="M5995 8710 c3 -5 11 -10 16 -10 6 0 7 5 4 10 -3 6 -11 10 -16 10 -6
0 -7 -4 -4 -10z"/>
<path d="M5918 8703 c7 -3 16 -2 19 1 4 3 -2 6 -13 5 -11 0 -14 -3 -6 -6z"/>
<path d="M6220 8700 c-11 -7 -6 -10 22 -10 20 0 45 -3 55 -7 16 -6 16 -5 4 10
-15 19 -57 22 -81 7z"/>
<path d="M6490 8705 c1 -16 58 -80 65 -73 4 4 -9 24 -29 45 -20 21 -36 34 -36
28z"/>
<path d="M8420 8700 c0 -5 5 -10 11 -10 5 0 7 5 4 10 -3 6 -8 10 -11 10 -2 0
-4 -4 -4 -10z"/>
<path d="M7000 8690 c-8 -5 -11 -12 -8 -16 4 -3 14 1 23 10 18 17 9 21 -15 6z"/>
<path d="M5657 8661 c-27 -15 -55 -38 -63 -49 -22 -32 1 -27 24 5 11 15 24 23
31 19 6 -4 9 -12 6 -17 -4 -5 4 -9 16 -9 22 0 22 0 3 -15 -25 -19 -6 -19 41 1
56 23 68 38 47 57 -41 36 -56 37 -105 8z"/>
<path d="M5915 8680 c-17 -6 -16 -8 9 -14 19 -5 26 -12 22 -21 -7 -18 3 -45
16 -45 5 0 6 6 1 13 -4 6 -6 21 -5 33 4 27 -17 44 -43 34z"/>
<path d="M6945 8663 c3 -10 7 -22 8 -28 1 -5 6 -13 11 -16 4 -4 3 -16 -3 -27
-8 -16 -7 -21 5 -26 10 -4 14 -14 11 -26 -5 -18 -4 -18 19 -3 27 17 30 29 12
36 -7 3 -4 6 7 7 18 1 19 1 3 11 -10 5 -18 17 -18 26 0 9 -6 13 -14 10 -10 -4
-17 4 -21 24 -4 16 -11 29 -17 29 -6 0 -7 -8 -3 -17z"/>
<path d="M8520 8670 c0 -7 -8 -9 -20 -5 -11 4 -20 2 -20 -4 0 -6 14 -11 30
-11 29 0 40 13 20 25 -5 3 -10 1 -10 -5z"/>
<path d="M7045 8658 c-3 -8 -3 -25 -1 -38 2 -14 5 -31 5 -39 1 -11 4 -11 14 3
14 19 11 72 -4 82 -5 3 -11 -1 -14 -8z"/>
<path d="M6642 8640 c-8 -13 -23 -20 -43 -20 l-30 0 26 -44 c16 -27 22 -45 15
-48 -16 -5 5 -57 25 -64 25 -10 28 2 10 36 -26 50 -25 81 1 117 13 17 24 34
24 37 0 13 -16 5 -28 -14z"/>
<path d="M6922 8635 c0 -16 2 -22 5 -12 2 9 2 23 0 30 -3 6 -5 -1 -5 -18z"/>
<path d="M6510 8611 c0 -12 5 -21 10 -21 6 0 10 6 10 14 0 8 -4 18 -10 21 -5
3 -10 -3 -10 -14z"/>
<path d="M6686 8606 c3 -8 13 -17 22 -21 13 -5 13 -2 -3 15 -21 24 -26 25 -19
6z"/>
<path d="M5930 8592 c6 -13 14 -21 18 -18 3 4 -2 14 -12 24 -18 16 -18 16 -6
-6z"/>
<path d="M5620 8563 c0 -22 2 -25 10 -13 13 20 13 40 0 40 -5 0 -10 -12 -10
-27z"/>
<path d="M5900 8578 c1 -17 28 -53 35 -46 8 7 -16 58 -27 58 -4 0 -8 -6 -8
-12z"/>
<path d="M6916 8577 c3 -10 9 -15 12 -12 3 3 0 11 -7 18 -10 9 -11 8 -5 -6z"/>
<path d="M6733 8525 c0 -22 2 -30 4 -17 2 12 2 30 0 40 -3 9 -5 -1 -4 -23z"/>
<path d="M5691 8494 c-24 -19 -49 -34 -55 -34 -15 -1 -64 -39 -49 -40 20 0
110 51 134 76 34 37 19 36 -30 -2z"/>
<path d="M8087 8450 c-73 -87 -87 -113 -33 -61 21 20 36 29 40 22 11 -17 26
-13 20 4 -4 8 -1 15 6 15 10 0 10 3 0 15 -9 11 -6 21 15 50 49 64 20 37 -48
-45z m15 -22 c-7 -7 -12 -8 -12 -2 0 14 12 26 19 19 2 -3 -1 -11 -7 -17z"/>
<path d="M6495 8500 c-3 -5 -1 -10 4 -10 6 0 11 5 11 10 0 6 -2 10 -4 10 -3 0
-8 -4 -11 -10z"/>
<path d="M6977 8503 c-4 -3 -7 -11 -7 -17 0 -6 5 -5 12 2 6 6 9 14 7 17 -3 3
-9 2 -12 -2z"/>
<path d="M6440 8496 c0 -2 7 -7 16 -10 8 -3 12 -2 9 4 -6 10 -25 14 -25 6z"/>
<path d="M5930 8465 c0 -13 4 -26 10 -30 5 -3 7 -12 3 -20 -3 -8 0 -15 6 -15
28 0 25 73 -4 84 -11 4 -15 -1 -15 -19z"/>
<path d="M6328 8483 c7 -3 16 -2 19 1 4 3 -2 6 -13 5 -11 0 -14 -3 -6 -6z"/>
<path d="M7063 8478 c2 -7 10 -12 16 -10 15 3 14 -13 -1 -38 -16 -25 -2 -52
30 -57 26 -3 28 4 6 28 -13 14 -13 19 -1 30 12 11 9 17 -14 36 -30 26 -43 29
-36 11z"/>
<path d="M5705 8454 c-9 -14 -34 -42 -55 -63 -34 -33 -36 -37 -17 -39 21 -1
34 13 89 101 10 15 14 27 9 27 -5 0 -16 -12 -26 -26z"/>
<path d="M6542 8460 c0 -14 2 -19 5 -12 2 6 2 18 0 25 -3 6 -5 1 -5 -13z"/>
<path d="M6699 8464 c-10 -13 -10 -17 1 -24 12 -7 11 -10 -3 -16 -20 -7 -23
-33 -3 -40 8 -3 12 -13 8 -26 -5 -20 -5 -20 -23 3 -10 13 -21 37 -25 52 -4 18
-10 25 -16 19 -6 -6 -5 -26 3 -56 6 -26 9 -50 5 -53 -11 -12 -38 24 -38 50 0
18 -5 24 -15 20 -8 -3 -11 -13 -8 -27 6 -20 6 -21 -9 -2 -23 29 -30 12 -10
-21 l18 -28 -21 18 c-20 18 -21 18 -37 -5 -9 -12 -16 -28 -16 -35 0 -13 -12
-17 -38 -14 -7 1 -12 -2 -11 -6 3 -14 -13 -43 -23 -43 -6 0 -5 6 2 15 12 15 6
35 -11 35 -5 0 -9 -6 -9 -14 0 -26 -21 -29 -42 -6 -11 12 -23 19 -26 16 -3 -4
3 -13 14 -21 18 -14 18 -14 -3 -15 -13 0 -23 -4 -23 -10 0 -5 -5 -10 -11 -10
-8 0 -8 4 1 15 6 8 9 23 6 33 -4 11 0 24 9 32 8 7 15 17 15 22 0 6 -7 5 -15
-2 -8 -7 -22 -9 -31 -6 -13 5 -15 2 -11 -13 3 -14 1 -18 -11 -14 -8 4 -20 0
-26 -8 -15 -19 -80 -41 -100 -33 -10 4 -16 1 -16 -7 -1 -9 -8 -5 -20 9 -17 21
-19 21 -29 5 -10 -17 -10 -17 -11 0 0 10 -4 15 -10 12 -5 -3 -10 -1 -10 5 0 6
-5 8 -10 5 -6 -4 -7 -11 -4 -17 4 -6 2 -8 -4 -4 -6 3 -14 20 -17 38 l-7 31
-14 -32 c-11 -26 -19 -32 -34 -28 -22 6 -28 -8 -7 -16 6 -3 2 -6 -9 -6 -12 -1
-24 6 -28 14 -3 8 -12 15 -21 15 -11 0 -15 11 -15 41 0 35 -3 40 -17 34 -47
-19 -57 -19 -49 1 10 26 20 114 13 114 -3 0 -11 -26 -17 -57 -14 -66 -24 -83
-53 -83 -18 0 -19 4 -13 61 4 33 10 68 13 77 5 13 3 14 -6 6 -7 -7 -15 -40
-18 -74 -7 -78 -26 -93 -107 -87 -48 3 -56 2 -56 -14 0 -9 21 -36 46 -58 26
-23 42 -41 36 -41 -6 0 -27 14 -45 30 -39 34 -47 36 -47 15 0 -8 -7 -15 -16
-15 -12 0 -15 9 -12 43 2 32 -1 42 -12 42 -9 0 -14 -7 -12 -17 2 -10 -3 -18
-10 -18 -9 0 -9 -3 0 -12 7 -7 12 -18 12 -26 0 -10 -4 -10 -16 3 -9 9 -14 25
-11 35 3 13 0 20 -10 20 -8 0 -11 5 -8 10 3 6 1 10 -5 10 -7 0 -14 -9 -17 -20
-3 -11 -9 -20 -14 -20 -5 0 -9 9 -9 20 0 29 3 35 18 32 6 -2 12 2 12 9 0 6 6
9 13 6 8 -3 20 -1 28 4 11 7 9 10 -9 15 -14 4 -19 10 -13 14 15 8 3 40 -14 40
-7 0 -16 6 -18 13 -3 6 -4 -9 -2 -35 4 -47 4 -47 -30 -54 -37 -7 -42 -13 -24
-31 8 -8 7 -16 -1 -30 -12 -19 -13 -19 -49 -1 -20 10 -40 24 -46 31 -17 21
-75 59 -75 48 0 -5 11 -22 24 -38 20 -24 22 -31 12 -46 -7 -9 -15 -14 -18 -12
-3 3 -48 -14 -99 -39 -125 -58 -216 -133 -266 -216 -48 -80 -144 -341 -173
-470 -81 -361 -101 -471 -110 -610 -14 -226 -18 -359 -11 -313 4 24 10 46 14
49 18 18 70 -24 133 -109 103 -138 175 -210 243 -241 63 -28 96 -56 67 -56 -9
0 -16 -8 -16 -19 0 -10 -9 -21 -20 -24 -13 -3 -18 -10 -14 -21 5 -13 -1 -16
-31 -16 -20 0 -51 -6 -68 -14 -139 -63 -240 -97 -289 -97 -11 0 -18 -8 -18
-19 0 -22 -23 -32 -52 -21 -15 5 -41 3 -70 -6 -26 -7 -60 -11 -75 -8 -23 4
-24 4 -8 -4 21 -10 17 -12 -35 -16 -14 -1 -34 -7 -45 -12 -33 -17 -137 -24
-175 -12 -59 18 -216 11 -261 -12 -22 -10 -39 -22 -39 -24 0 -3 14 2 31 10 17
9 33 15 35 12 9 -9 -51 -40 -78 -41 -15 -1 -28 -4 -28 -8 0 -3 -14 -9 -30 -13
-17 -4 -30 -10 -30 -13 0 -4 -12 -16 -27 -26 -27 -20 -25 -10 6 29 9 11 -14
-11 -51 -48 -38 -38 -68 -73 -68 -78 0 -5 -17 -8 -37 -8 l-38 1 30 9 c21 6 11
7 -35 4 -36 -3 -99 -16 -140 -29 -110 -35 -258 -63 -400 -76 -69 -7 -170 -18
-225 -27 -55 -8 -153 -15 -218 -15 -72 0 -117 -4 -117 -10 0 -6 -7 -8 -15 -4
-8 3 -15 1 -15 -5 0 -6 -4 -8 -9 -5 -8 5 -70 -13 -81 -24 -3 -3 -32 -18 -64
-35 -94 -48 -96 -49 -102 -67 -6 -19 -8 -20 -66 -20 -21 0 -38 -4 -38 -9 0 -5
-6 -9 -13 -9 -10 0 -12 -15 -9 -57 5 -75 -30 -247 -69 -335 -16 -36 -29 -74
-29 -82 0 -9 -8 -19 -17 -22 -10 -3 -26 -10 -35 -15 -11 -5 -27 -5 -44 1 -26
10 -44 6 -44 -9 0 -5 12 -6 28 -4 21 4 24 2 12 -6 -19 -13 -60 -14 -80 -1 -13
8 -12 10 4 10 12 0 16 5 12 16 -3 9 -6 18 -6 20 0 13 -19 1 -23 -16 -3 -11
-11 -20 -19 -20 -9 0 -9 3 -2 8 6 4 11 15 11 25 0 14 -6 17 -23 13 -13 -4 -25
-2 -28 3 -5 8 -46 14 -176 28 -25 2 -94 6 -155 8 -152 4 -149 2 -155 61 l-6
49 -8 -40 c-11 -57 -14 -65 -26 -65 -18 0 -11 43 29 170 21 69 47 153 56 188
l18 62 39 0 c21 0 57 9 79 20 23 12 48 18 60 15 10 -4 19 -4 19 -1 0 2 -22 12
-49 21 -42 14 -50 21 -65 57 l-16 42 -24 -23 c-15 -14 -26 -19 -31 -12 -3 6 1
11 9 11 9 0 16 6 16 14 0 19 -17 29 -25 16 -3 -5 -11 -10 -16 -10 -6 0 -7 5
-3 11 4 7 -1 9 -12 7 -11 -2 -18 -8 -17 -14 1 -5 -12 -9 -28 -10 -33 -1 -29
12 9 29 l27 11 -32 4 c-28 3 -33 7 -33 30 0 15 10 43 23 62 36 55 49 111 37
164 -13 61 -40 126 -51 126 -12 0 -11 -10 2 -48 9 -27 7 -35 -25 -77 -20 -26
-36 -52 -37 -58 0 -7 -2 -22 -3 -34 -2 -13 1 -23 5 -23 4 0 10 10 12 23 2 12
3 4 0 -18 -4 -43 -31 -75 -65 -75 -11 0 -22 -8 -25 -20 -3 -11 -9 -17 -14 -15
-4 3 -6 12 -2 20 3 9 -1 15 -11 15 -10 0 -13 -6 -10 -17 10 -30 -12 3 -56 87
-40 74 -81 117 -100 105 -13 -8 -13 -71 0 -96 6 -11 7 -19 1 -19 -10 0 -31 53
-31 80 0 10 7 23 15 30 18 15 15 18 -37 49 l-37 22 -32 -66 c-17 -36 -35 -68
-40 -71 -13 -8 -11 20 3 34 6 6 8 15 4 19 -4 4 -12 1 -17 -7 -9 -12 -10 -12
-5 3 3 10 6 21 6 23 0 3 5 2 10 -1 6 -4 18 -1 26 6 12 10 12 14 2 20 -10 7 -9
9 5 9 10 0 17 8 17 19 0 21 -40 36 -71 26 -20 -7 -30 2 -108 95 -60 72 -139
210 -155 274 -13 51 -47 106 -66 106 -3 0 -11 -13 -17 -29 -7 -19 -25 -36 -49
-48 -23 -11 -40 -26 -41 -38 -3 -17 -2 -17 7 3 9 21 30 31 30 14 0 -5 -7 -31
-15 -58 -16 -55 -14 -111 5 -106 8 2 11 -4 7 -17 -5 -21 12 -25 25 -6 4 6 8
-5 8 -24 0 -32 -1 -33 -18 -18 -23 21 -32 21 -32 2 0 -8 3 -15 8 -14 25 4 52
-16 54 -40 2 -35 3 -41 16 -74 16 -38 15 -53 -4 -71 -20 -21 -40 -10 -22 12
11 13 11 14 -2 10 -8 -3 -27 1 -42 8 -27 14 -31 26 -41 134 -2 19 -4 4 -5 -35
-3 -143 58 -403 130 -550 31 -62 102 -191 174 -311 23 -39 45 -81 48 -92 4
-12 12 -22 18 -22 6 0 9 -3 6 -6 -14 -13 112 -277 160 -334 l29 -34 -31 -22
c-54 -40 -99 -59 -104 -46 -2 7 -8 12 -13 12 -6 0 -7 -4 -4 -10 8 -12 -38 -24
-70 -18 -27 6 -33 -3 -12 -20 63 -51 217 -18 304 66 31 30 63 47 124 67 104
35 286 122 297 142 8 13 20 14 93 5 46 -6 122 -14 169 -18 47 -3 128 -13 180
-21 52 -9 108 -16 123 -16 16 0 24 -3 18 -6 -6 -4 20 -22 56 -40 64 -32 73
-33 208 -37 77 -2 201 -7 275 -11 74 -5 185 -5 245 -2 61 4 250 12 420 18 171
7 403 21 516 31 114 11 235 20 270 20 35 0 107 9 159 19 90 18 298 43 475 56
137 11 455 45 555 60 148 23 1254 26 1559 5 148 -10 325 6 529 49 119 25 139
33 205 76 39 26 107 77 150 114 65 54 89 84 141 171 65 107 123 260 146 385
14 74 60 226 99 325 25 65 35 79 73 102 24 14 52 36 64 47 23 24 81 29 210 16
l70 -7 21 73 c12 41 38 132 57 202 54 189 143 435 179 492 l32 50 6 -75 c17
-200 76 -410 175 -617 29 -63 71 -168 94 -236 41 -123 180 -426 321 -697 21
-41 39 -85 39 -97 0 -23 20 -33 20 -10 0 8 3 7 10 -3 6 -11 27 -15 67 -15 97
0 273 99 273 154 0 6 7 11 16 11 11 0 15 -6 11 -19 -3 -12 1 -22 9 -25 22 -8
16 -33 -12 -55 -15 -12 -20 -21 -13 -21 40 1 65 60 37 88 -18 18 -2 25 32 14
33 -12 158 -28 150 -19 -3 3 -52 15 -108 26 -92 19 -107 25 -130 53 -15 18
-27 40 -28 49 -3 51 -12 52 -66 5 -61 -54 -120 -76 -199 -76 -61 0 -89 7 -89
21 0 5 12 4 26 -2 30 -11 46 -3 24 11 -13 8 -12 10 2 10 9 0 18 -5 20 -12 5
-14 38 -4 38 12 0 5 -8 10 -19 10 -10 0 -24 7 -31 15 -7 8 -28 15 -47 15 -37
0 -97 22 -107 39 -4 5 10 3 31 -6 21 -8 58 -17 83 -19 40 -3 46 0 46 16 0 11
-4 20 -8 20 -4 0 -8 5 -8 11 0 5 6 7 13 3 6 -4 3 2 -7 14 -11 12 -24 22 -29
22 -5 0 -15 7 -21 15 -6 8 -26 16 -43 17 -20 1 -33 8 -33 16 0 9 7 11 20 7 14
-5 20 -2 20 9 0 9 0 19 1 23 0 4 -5 9 -12 12 -7 2 -9 -1 -5 -8 4 -6 4 -11 -1
-11 -14 1 -43 27 -43 39 0 6 -7 11 -15 11 -20 0 -19 26 1 34 31 12 46 7 39
-14 -4 -11 -2 -20 4 -20 6 0 11 5 11 11 0 6 8 8 18 5 27 -9 82 21 75 40 -4 12
-16 14 -46 11 -32 -4 -40 -1 -44 14 -3 11 -10 19 -15 19 -6 0 -8 -6 -5 -14 9
-22 -21 -28 -48 -10 -13 9 -28 13 -33 10 -6 -3 -12 3 -15 14 -3 11 -1 20 4 20
5 0 9 7 9 15 0 8 6 12 14 9 7 -3 21 2 30 11 21 22 2 53 -20 34 -19 -15 -18 -1
1 17 8 9 19 12 25 9 5 -3 10 -1 10 5 0 15 -33 26 -38 12 -6 -20 -22 -13 -22 9
0 15 4 19 16 15 9 -4 22 -2 29 4 9 8 15 8 20 0 3 -5 15 -10 26 -10 12 0 19 -7
19 -19 0 -28 20 -38 66 -35 35 2 43 -1 47 -17 3 -11 -1 -36 -9 -54 -18 -44
-18 -45 6 -45 17 0 19 5 14 33 -4 21 -3 28 4 19 5 -8 13 -12 18 -10 5 1 10
-12 12 -31 3 -24 0 -32 -10 -28 -38 13 -69 -62 -48 -117 8 -21 6 -28 -12 -40
-20 -14 -20 -15 14 -29 20 -8 43 -25 51 -38 14 -20 20 -21 49 -12 l33 11 -30
1 c-16 1 -37 6 -45 11 -13 9 -10 15 18 38 18 15 32 34 32 42 0 15 57 91 73 98
4 2 3 10 -4 18 -9 12 -6 14 20 14 31 0 31 0 25 43 -4 23 -17 83 -31 132 -13
50 -35 134 -48 187 -14 53 -43 134 -64 180 -39 83 -128 315 -151 395 -11 36
-9 61 15 194 25 137 27 165 22 288 -4 75 -14 164 -22 198 -19 79 -35 252 -35
371 0 59 -4 92 -11 92 -6 0 -9 21 -8 55 1 30 0 58 -4 61 -8 8 -19 -38 -15 -62
2 -12 -2 -18 -11 -16 -19 4 -31 -18 -25 -45 4 -14 -2 -29 -15 -42 -13 -13 -20
-32 -19 -49 1 -15 -1 -33 -5 -39 -4 -7 -1 -15 7 -20 13 -7 13 -16 3 -63 -8
-34 -16 -50 -20 -42 -17 25 -26 10 -23 -35 3 -41 2 -45 -10 -29 -7 10 -17 15
-23 12 -6 -4 -19 -2 -30 3 -14 8 -22 7 -31 -4 -11 -13 -16 -8 -38 32 -13 27
-29 50 -34 51 -5 2 -4 10 3 18 9 12 6 19 -17 39 -16 14 -37 25 -46 25 -21 0
-21 -1 -9 -33 11 -28 -11 -53 -51 -59 -25 -3 -39 -38 -15 -38 9 0 18 -13 22
-30 6 -28 25 -43 25 -19 0 6 7 9 15 5 8 -3 19 3 25 12 9 15 10 15 16 -6 5 -17
10 -20 19 -12 22 18 57 -10 51 -40 -6 -32 12 -54 47 -58 25 -3 27 -1 22 25 -5
24 -5 26 5 10 14 -22 -3 -100 -27 -128 -7 -8 -13 -23 -13 -32 0 -9 -4 -17 -8
-17 -5 0 -7 -13 -4 -30 3 -23 0 -30 -12 -30 -11 0 -16 7 -14 18 2 14 -3 16
-29 14 -26 -3 -33 1 -34 15 0 17 -1 17 -8 0 -4 -10 -11 -18 -15 -17 -5 1 -13
-4 -17 -12 -7 -11 -11 -10 -19 2 -8 12 -13 13 -30 3 -11 -7 -26 -13 -34 -13
-11 0 -26 -20 -26 -35 0 -6 95 2 113 10 12 5 17 2 17 -9 0 -21 29 -21 58 0 13
9 25 14 28 11 11 -10 -40 -143 -63 -163 l-24 -20 25 -14 c19 -10 28 -26 36
-66 6 -30 15 -56 20 -59 5 -3 29 -8 55 -12 46 -6 47 -5 36 15 -17 32 -14 32
35 6 l46 -25 24 26 c30 33 32 15 2 -20 -18 -20 -35 -27 -80 -32 -53 -5 -58 -8
-58 -29 0 -13 5 -24 10 -24 6 0 10 4 10 10 0 5 16 9 35 8 23 -1 35 -6 35 -15
0 -8 -4 -11 -10 -8 -16 10 -12 -11 5 -25 8 -7 15 -20 16 -29 0 -12 2 -11 9 4
5 11 9 14 9 8 1 -19 32 -16 47 4 17 24 29 10 14 -16 -9 -18 -34 -27 -62 -22
-5 0 -8 -3 -8 -8 0 -8 -40 -20 -82 -25 -25 -4 -22 21 3 29 16 5 18 10 8 21 -6
8 -17 14 -24 14 -7 0 -21 11 -31 25 -10 14 -24 23 -31 21 -6 -3 -14 0 -16 7
-3 9 -10 7 -23 -5 -14 -12 -22 -13 -29 -5 -17 20 -17 53 0 67 8 7 15 8 15 3 0
-16 73 -34 85 -21 7 7 7 9 -1 5 -6 -3 -27 3 -47 13 -20 11 -52 20 -69 20 -28
1 -30 2 -15 11 10 6 27 9 38 6 30 -8 22 9 -11 23 -16 7 -30 17 -30 22 0 5 5 6
11 2 8 -4 9 1 4 16 -5 15 -4 20 4 16 7 -4 11 1 11 13 0 13 -7 21 -16 21 -9 0
-18 8 -20 18 -4 12 -15 17 -37 16 -45 0 -57 5 -57 28 0 17 5 19 40 14 22 -3
40 -2 40 2 0 14 -24 32 -42 32 -10 0 -18 7 -18 15 0 9 6 12 17 8 11 -4 14 -3
9 6 -5 7 -14 10 -22 7 -8 -3 -14 0 -14 7 0 7 -10 1 -21 -13 -20 -24 -21 -24
-16 -3 5 24 -11 43 -22 26 -7 -11 -41 -25 -41 -17 0 15 22 44 34 44 8 0 19 14
26 30 8 18 20 30 31 30 11 0 19 5 19 10 0 6 -11 10 -24 10 -29 0 -46 19 -19
21 41 3 47 5 51 19 5 13 3 13 -13 0 -17 -14 -18 -13 -13 18 4 30 -6 46 -14 21
-2 -6 -26 -13 -53 -15 -49 -5 -50 -5 -20 9 32 15 71 54 63 62 -3 3 -16 -3 -29
-13 -13 -11 -30 -17 -36 -15 -7 3 -13 0 -13 -6 0 -6 -4 -11 -10 -11 -11 0 7
46 28 72 7 9 22 43 32 75 10 32 21 67 25 78 5 17 -9 -4 -51 -77 -9 -15 -14
-17 -20 -7 -4 7 -3 14 4 17 19 6 14 32 -6 32 -31 0 -55 -35 -49 -70 8 -35 -5
-40 -21 -7 -9 18 -11 19 -11 4 -1 -10 4 -28 10 -40 9 -19 7 -18 -10 3 -11 14
-21 30 -21 36 0 7 -7 15 -16 18 -22 8 -13 74 25 181 21 61 32 80 46 80 10 0
20 6 23 13 2 7 -2 10 -12 6 -20 -8 -20 -9 8 63 13 34 21 64 18 67 -3 3 -1 16
5 29 17 35 23 57 15 57 -4 0 -18 -25 -31 -55 -14 -30 -29 -55 -34 -55 -4 0 -5
-5 -1 -11 7 -12 -66 -239 -78 -239 -3 0 0 20 7 45 8 25 15 69 15 97 3 112 24
259 35 254 6 -2 12 2 12 9 0 7 -6 11 -12 9 -9 -4 -9 7 -2 44 6 26 7 61 2 78
-7 28 -8 28 -16 7 -4 -12 -9 -61 -10 -110 -1 -48 -5 -101 -9 -118 -24 -98 -44
-192 -42 -207 0 -10 -4 -21 -10 -24 -8 -5 -9 7 -5 40 6 42 3 53 -24 92 -16 24
-34 44 -38 44 -5 0 -21 10 -36 22 -25 19 -26 23 -11 34 11 8 13 14 7 19 -6 3
-11 2 -11 -3 0 -15 -41 -2 -47 14 -3 8 -13 14 -22 14 -12 0 -13 2 -3 8 9 6 4
14 -18 30 -16 12 -32 22 -35 22 -12 0 -3 -41 13 -57 21 -21 42 -67 42 -92 0
-9 7 -26 16 -37 15 -18 15 -18 9 4 -10 34 10 26 50 -20 36 -42 36 -42 29 -13
-3 17 -16 41 -28 53 l-21 24 31 -18 c24 -14 34 -30 46 -73 9 -31 19 -65 23
-76 6 -17 5 -18 -4 -3 -14 21 -98 78 -114 78 -7 -1 10 -20 37 -44 52 -46 57
-71 14 -79 -20 -3 -18 -6 19 -23 24 -10 43 -22 43 -26 0 -13 -60 -9 -135 8
-174 39 -356 56 -369 35 -4 -5 3 -7 14 -4 29 8 254 -26 300 -45 8 -3 33 -10
54 -16 50 -14 59 -34 14 -29 l-33 3 30 -10 c17 -6 53 -8 80 -4 76 9 44 -10
-57 -35 -47 -12 -104 -21 -125 -21 -55 0 -121 -20 -102 -30 8 -5 31 -5 51 -1
20 5 78 8 128 7 50 -1 94 2 96 6 3 5 14 8 25 8 13 0 19 7 20 23 1 19 3 17 15
-11 8 -18 19 -30 24 -27 11 7 16 -2 25 -42 5 -26 3 -33 -9 -33 -8 0 -18 -5
-21 -10 -4 -7 4 -9 22 -6 l28 6 -32 -30 c-18 -17 -36 -30 -40 -30 -5 0 -15 -6
-21 -12 -14 -14 -62 -19 -62 -6 0 4 4 8 9 8 5 0 23 14 41 30 28 26 29 30 12
30 -11 0 -27 -11 -36 -25 -16 -24 -45 -37 -30 -14 3 6 2 14 -3 18 -5 3 -14 21
-19 40 -5 19 -14 36 -19 38 -6 2 -22 -17 -37 -42 -31 -50 -58 -60 -58 -20 0
32 -23 32 -40 0 -10 -18 -16 -22 -22 -13 -5 9 -8 9 -8 1 0 -6 -3 -18 -6 -27
-4 -11 0 -14 16 -11 17 3 21 0 17 -14 -5 -21 22 -24 38 -3 6 7 27 15 49 17 21
3 42 8 47 11 5 3 9 -2 9 -11 0 -8 -7 -18 -15 -21 -8 -4 -15 -14 -15 -23 -1
-13 -3 -13 -16 4 -14 19 -16 19 -25 3 -6 -10 -19 -18 -29 -18 -12 0 -20 -7
-20 -17 0 -15 -2 -16 -10 -3 -8 13 -10 13 -10 -2 0 -12 -5 -15 -15 -11 -10 3
-15 1 -13 -8 2 -7 -5 -15 -14 -17 -14 -3 -16 1 -11 15 5 14 3 16 -7 6 -7 -7
-13 -26 -13 -42 0 -20 -4 -27 -13 -24 -17 6 -84 -16 -102 -34 -7 -7 -19 -13
-25 -13 -7 0 -4 7 6 14 22 17 22 26 -3 26 -23 0 -43 32 -34 54 8 20 -6 21 -31
3 -19 -15 -32 -77 -15 -77 6 0 10 -4 10 -10 0 -21 -28 -9 -34 15 -5 21 -12 25
-41 25 -18 0 -37 -4 -40 -10 -11 -19 -23 -10 -17 13 5 20 4 21 -11 8 -11 -8
-17 -9 -17 -3 0 7 -7 9 -17 5 -11 -4 -14 -3 -9 5 4 7 0 13 -11 14 -10 0 -22 2
-28 3 -5 2 -16 3 -23 4 -7 0 -10 6 -6 13 4 7 3 8 -5 4 -6 -4 -18 -3 -25 3 -10
8 -17 7 -26 -4 -10 -12 -9 -20 5 -41 16 -25 16 -25 -4 -14 -12 6 -22 15 -22
20 -5 39 -18 53 -34 40 -8 -7 -18 -9 -24 -6 -5 3 -11 1 -13 -6 -6 -17 -33 -21
-138 -22 -80 -1 -102 3 -137 21 -24 12 -43 18 -43 13 0 -6 -12 -8 -27 -4 -16
3 -37 7 -49 8 -11 1 -24 5 -30 8 -5 3 -22 8 -39 12 -16 4 -40 14 -53 22 -18
12 -20 18 -12 34 15 28 -5 26 -24 -2 -16 -22 -17 -22 -44 -5 -15 10 -35 21
-44 24 -10 3 -20 14 -24 25 -4 15 -8 17 -14 8 -5 -9 -12 -5 -25 11 l-17 24 8
-35 c17 -83 -8 -168 -90 -299 -25 -39 -58 -159 -49 -174 3 -5 2 -12 -3 -16
-11 -7 -44 -58 -44 -67 0 -3 7 -1 15 6 8 7 15 19 15 26 0 14 12 18 38 15 6 -1
12 8 12 20 0 15 4 19 15 15 11 -4 19 3 26 22 29 80 49 92 163 98 57 3 82 0 88
-9 6 -9 8 -7 8 5 0 21 44 28 175 29 162 2 231 -15 204 -47 -11 -13 -5 -18 15
-15 4 1 14 -3 21 -9 8 -7 16 -7 19 -2 3 6 -1 15 -9 22 -8 7 -12 16 -9 22 4 5
10 5 18 -1 6 -5 21 -8 31 -7 11 2 30 -3 43 -11 14 -9 43 -13 73 -12 28 2 54
-2 61 -9 9 -9 9 -12 0 -12 -7 0 -12 -7 -12 -15 0 -8 6 -12 14 -9 8 3 40 -2 71
-10 45 -14 85 -16 208 -11 156 5 207 11 207 24 0 4 16 5 35 3 39 -5 85 19 85
43 0 21 58 49 74 35 10 -8 28 1 74 35 33 25 67 55 75 67 27 39 94 108 106 108
33 0 -30 -131 -84 -174 -80 -65 -229 -135 -315 -150 -133 -23 -190 -28 -308
-31 -74 -2 -138 -7 -144 -13 -6 -6 -24 -6 -46 -1 -20 5 -67 8 -105 8 -40 -1
-73 4 -82 11 -12 10 -18 10 -30 0 -10 -8 -28 -10 -53 -6 -70 13 -80 13 -76 2
3 -6 17 -20 31 -30 25 -18 26 -18 20 -2 -6 16 -3 17 28 12 96 -18 395 -29 568
-20 117 5 137 9 138 23 0 10 2 11 6 4 6 -16 63 -17 63 -2 0 6 5 7 13 2 6 -4
32 -8 57 -8 42 0 45 -2 42 -24 -5 -33 -30 -69 -53 -76 -13 -5 -32 3 -56 21
-28 21 -37 24 -44 13 -5 -8 -6 -22 -3 -31 3 -10 1 -18 -5 -18 -6 0 -11 4 -11
9 0 5 -12 8 -26 7 -18 -2 -31 -12 -40 -32 l-14 -29 4 28 c2 21 -1 27 -16 27
-10 0 -21 -6 -24 -14 -3 -8 -15 -16 -26 -19 -26 -7 -16 -23 19 -32 45 -11 77
-60 70 -109 -1 -10 4 -21 12 -24 11 -4 13 2 8 26 -8 40 39 108 80 116 60 11
133 18 133 11 0 -24 -66 -98 -153 -171 -33 -28 -149 -76 -172 -72 -13 3 -22 2
-20 -2 5 -8 -47 -33 -70 -34 -5 -1 -18 -10 -28 -21 -14 -15 -22 -17 -35 -9
-12 8 -27 6 -59 -10 -52 -26 -59 -52 -10 -41 17 4 42 8 55 9 12 0 27 7 31 15
7 11 13 11 37 -1 25 -12 33 -12 59 1 50 25 79 22 98 -11 15 -27 15 -30 -1 -48
-20 -24 -34 -26 -25 -4 5 14 3 15 -15 5 -11 -6 -33 -11 -47 -11 -17 0 -25 -5
-22 -12 2 -7 10 -13 18 -13 8 0 18 -6 22 -12 9 -15 87 -18 87 -4 0 5 -6 11
-12 14 -7 2 1 7 17 11 17 4 48 22 70 41 22 19 43 35 47 35 12 0 9 -25 -4 -39
-11 -11 -10 -12 1 -6 11 6 13 4 8 -9 -4 -10 -7 -20 -7 -22 0 -2 -9 -4 -19 -4
-10 0 -22 -7 -25 -16 -4 -9 -13 -14 -21 -10 -8 3 -15 1 -15 -4 0 -5 -9 -11
-19 -15 -11 -3 -23 -14 -26 -23 -11 -35 -64 -49 -150 -40 -44 4 -103 10 -131
13 -28 2 -71 11 -95 20 -44 16 -87 30 -209 67 -81 26 -263 115 -351 174 -37
24 -71 44 -76 44 -6 0 -29 14 -53 31 -24 17 -62 43 -86 58 -23 14 -93 64 -154
110 -112 85 -112 85 -90 103 12 10 18 22 14 29 -5 9 -10 8 -18 -3 -11 -15 -49
-38 -62 -38 -3 0 -1 7 6 15 10 12 4 25 -39 72 -101 113 -400 547 -458 666 -19
38 -51 108 -72 156 -37 86 -138 268 -193 348 -15 23 -28 44 -28 47 0 2 39 -6
88 -19 48 -12 139 -28 202 -34 156 -14 673 -9 693 8 8 6 18 38 22 71 5 45 10
57 21 53 8 -3 14 -1 14 5 0 5 -6 12 -14 15 -12 5 -13 12 -3 39 7 18 15 35 19
38 4 3 3 12 -2 19 -4 8 -6 47 -3 88 6 74 -1 89 -28 57z m-140 -180 c-9 -11
-15 -11 -25 -3 -19 15 -18 17 11 17 21 0 23 -3 14 -14z m-39 -18 c0 -3 -4 -8
-10 -11 -5 -3 -10 -1 -10 4 0 6 5 11 10 11 6 0 10 -2 10 -4z m-1087 -23 c-7
-2 -19 -2 -25 0 -7 3 -2 5 12 5 14 0 19 -2 13 -5z m-46 -415 c-3 -8 -6 -5 -6
6 -1 11 2 17 5 13 3 -3 4 -12 1 -19z m3675 -50 c-5 -5 -13 -3 -21 6 -9 11 -8
18 6 32 17 17 18 17 21 -5 2 -13 0 -27 -6 -33z m-3685 -30 c-3 -7 -5 -2 -5 12
0 14 2 19 5 13 2 -7 2 -19 0 -25z m200 10 c-3 -8 -6 -5 -6 6 -1 11 2 17 5 13
3 -3 4 -12 1 -19z m3455 -10 c-9 -9 -12 -7 -12 12 0 19 3 21 12 12 9 -9 9 -15
0 -24z m-631 -149 c-9 -22 -10 -22 -10 -3 -1 11 2 24 6 27 12 12 14 0 4 -24z
m314 -9 c-3 -5 -11 -10 -16 -10 -6 0 -7 5 -4 10 3 6 11 10 16 10 6 0 7 -4 4
-10z m220 -77 c-9 -8 -18 -13 -21 -10 -8 8 19 36 29 30 4 -2 0 -11 -8 -20z
m75 -12 c0 -16 -12 -41 -20 -41 -4 0 -5 11 -2 25 4 23 22 36 22 16z m-537 -91
c-6 -6 -33 30 -33 43 0 5 9 -1 19 -14 11 -13 17 -26 14 -29z m37 10 c-7 -16
-16 -30 -21 -30 -13 0 -11 8 8 41 21 36 30 29 13 -11z m-2525 12 c-3 -3 -11 0
-18 7 -9 10 -8 11 6 5 10 -3 15 -9 12 -12z m2436 -49 c-12 -20 -14 -14 -5 12
4 9 9 14 11 11 3 -2 0 -13 -6 -23z m-2853 -49 c-2 -19 0 -34 5 -34 4 0 5 -5 2
-10 -19 -31 -32 27 -18 80 9 32 16 8 11 -36z m1198 2 c18 -14 18 -15 2 -21
-10 -4 -25 -5 -33 -1 -8 3 -19 -2 -24 -12 -6 -9 -11 -13 -11 -9 0 11 31 57 39
57 4 0 16 -6 27 -14z m1474 10 c0 -3 -4 -8 -10 -11 -5 -3 -10 -1 -10 4 0 6 5
11 10 11 6 0 10 -2 10 -4z m-2214 -22 c18 -14 18 -14 -6 -3 -31 14 -36 19 -24
19 6 0 19 -7 30 -16z m2424 1 c0 -22 -163 -183 -193 -190 -14 -4 -28 -13 -31
-20 -2 -7 -27 -20 -55 -30 -27 -9 -55 -23 -61 -31 -7 -7 -22 -14 -34 -14 -12
0 -26 -4 -32 -10 -17 -17 -195 -50 -268 -50 -55 1 -203 25 -175 29 3 1 53 3
110 6 57 2 120 7 139 10 56 10 193 45 212 56 10 5 25 9 34 9 10 0 32 11 50 25
18 14 39 25 46 25 25 0 97 60 91 75 -3 8 0 15 7 15 6 0 9 -4 5 -9 -15 -25 18
-18 52 11 48 42 63 60 56 72 -4 5 -1 6 5 2 6 -3 16 3 22 14 13 24 20 26 20 5z
m120 -15 c-6 -11 -15 -18 -21 -14 -6 4 -6 11 2 20 17 21 31 17 19 -6z m-1747
1 c27 -10 40 -51 27 -85 -17 -49 -21 -78 -9 -74 7 2 14 13 15 24 1 10 5 39 8
63 2 24 7 45 10 48 7 7 66 -7 66 -16 0 -4 8 -7 18 -8 30 -2 86 -19 125 -38 22
-10 65 -19 103 -20 61 -2 94 -13 67 -22 -7 -3 -13 -12 -13 -21 1 -15 3 -14 15
2 21 28 71 33 180 19 96 -13 113 -33 40 -50 -30 -7 -47 -7 -55 1 -7 7 -10 3
-10 -12 0 -21 -2 -21 -124 -17 -68 3 -141 7 -162 10 -21 2 -60 -2 -88 -9 -28
-8 -78 -15 -111 -16 -246 -8 -237 -9 -232 11 3 11 1 17 -4 13 -5 -3 -9 -14 -9
-24 0 -12 -12 -22 -35 -30 -19 -6 -44 -23 -55 -37 -11 -14 -20 -20 -20 -13 0
7 18 32 40 56 22 24 40 48 40 54 0 5 12 13 26 16 17 4 22 10 15 17 -7 7 -18 5
-36 -7 l-26 -17 16 38 c9 21 24 49 33 63 9 14 15 29 13 35 -1 5 6 2 17 -8 23
-21 32 -22 32 -1 0 8 -4 12 -10 9 -6 -3 -7 1 -4 9 6 16 19 20 62 18 24 -1 30
13 10 21 -23 10 0 7 25 -2z m2091 -18 c-9 -37 -14 -44 -24 -38 -11 7 8 65 21
65 5 0 6 -12 3 -27z m-2855 -19 c14 -12 -19 -1 -35 12 -18 14 -18 14 6 3 14
-6 27 -13 29 -15z m2393 4 c-7 -7 -12 -8 -12 -2 0 14 12 26 19 19 2 -3 -1 -11
-7 -17z m148 1 c12 -8 12 -12 2 -16 -7 -3 -28 -21 -47 -41 -19 -20 -36 -34
-39 -31 -3 3 10 22 29 43 19 21 32 42 29 47 -7 12 8 11 26 -2z m-2575 -19 c3
-6 -1 -7 -9 -4 -18 7 -21 14 -7 14 6 0 13 -4 16 -10z m1565 -41 c0 -6 -4 -7
-10 -4 -5 3 -10 11 -10 16 0 6 5 7 10 4 6 -3 10 -11 10 -16z m580 12 c0 -5 -7
-11 -14 -14 -10 -4 -13 -1 -9 9 6 15 23 19 23 5z m870 -58 c36 -23 80 -65 80
-75 0 -5 -15 5 -32 22 -18 17 -43 33 -55 36 -12 3 -24 12 -27 20 -7 19 4 18
34 -3z m-3256 -27 c-10 -8 -21 -12 -24 -10 -5 6 21 24 34 24 6 0 1 -6 -10 -14z
m1806 -2 c0 -8 -5 -12 -10 -9 -6 4 -8 11 -5 16 9 14 15 11 15 -7z m1400 -2
c-8 -2 -43 -34 -78 -70 -52 -56 -59 -68 -45 -73 10 -3 23 -4 29 -2 6 2 14 -3
17 -11 3 -8 25 -18 51 -21 46 -7 59 -21 31 -31 -20 -8 -72 14 -79 32 -8 20
-26 17 -20 -3 4 -13 3 -14 -3 -5 -6 7 -23 16 -39 21 -38 10 -44 38 -9 47 15 4
32 19 41 37 24 45 99 105 114 89 3 -2 -2 -7 -10 -10z m-351 -24 c-8 -14 -14
-18 -17 -10 -4 13 17 46 25 38 3 -2 -1 -15 -8 -28z m-2534 12 c3 -6 -1 -7 -9
-4 -18 7 -21 14 -7 14 6 0 13 -4 16 -10z m-15 -20 c8 -5 11 -10 5 -10 -5 0
-17 5 -25 10 -8 5 -10 10 -5 10 6 0 17 -5 25 -10z m1914 -11 c-6 -11 -24 -2
-24 11 0 5 7 7 15 4 8 -4 12 -10 9 -15z m-2526 -8 c33 3 62 2 70 -4 8 -6 12
-6 12 2 0 7 5 9 11 5 22 -13 -16 -24 -87 -24 -55 0 -75 4 -85 17 -12 15 -12
15 4 7 10 -6 42 -7 75 -3z m142 5 c0 -11 -19 -15 -25 -6 -3 5 1 10 9 10 9 0
16 -2 16 -4z m3402 -77 c10 0 10 -2 0 -6 -18 -7 -52 26 -52 51 0 17 3 15 20
-11 11 -18 25 -33 32 -34z m-2957 33 c-3 -3 -11 0 -18 7 -9 10 -8 11 6 5 10
-3 15 -9 12 -12z m-335 -31 c-25 -36 -39 -42 -18 -8 8 12 18 28 22 35 5 7 10
11 13 8 3 -3 -5 -19 -17 -35z m195 29 c3 -6 -1 -7 -9 -4 -18 7 -21 14 -7 14 6
0 13 -4 16 -10z m-95 -35 c0 -5 -4 -4 -9 3 -6 10 -14 7 -32 -12 -13 -14 -28
-26 -33 -26 -6 0 5 16 24 35 32 33 50 33 50 0z m205 25 c3 -5 1 -10 -4 -10 -6
0 -11 5 -11 10 0 6 2 10 4 10 3 0 8 -4 11 -10z m2675 -15 c0 -19 -12 -25 -27
-14 -19 16 -16 25 7 25 11 0 20 -5 20 -11z m-2785 -5 c3 -6 -1 -7 -9 -4 -18 7
-21 14 -7 14 6 0 13 -4 16 -10z m245 0 c8 -5 11 -10 5 -10 -5 0 -17 5 -25 10
-8 5 -10 10 -5 10 6 0 17 -5 25 -10z m2464 -24 c-10 -8 -21 -12 -24 -9 -3 2 4
11 14 19 11 7 22 12 25 9 2 -3 -4 -12 -15 -19z m-2704 -12 c0 -2 -9 0 -20 6
-11 6 -20 13 -20 16 0 2 9 0 20 -6 11 -6 20 -13 20 -16z m150 10 l35 -14 -35
6 c-19 3 -39 10 -44 15 -14 13 2 10 44 -7z m2649 -15 c-25 -16 -32 -9 -13 12
12 13 20 16 22 9 3 -7 -2 -16 -9 -21z m-2885 -14 c-4 -8 -8 -15 -10 -15 -2 0
-4 7 -4 15 0 8 4 15 10 15 5 0 7 -7 4 -15z m725 -16 c-19 -12 -24 -2 -8 17 9
11 14 13 17 4 3 -7 -2 -16 -9 -21z m2111 11 c0 -5 -2 -10 -4 -10 -3 0 -8 5
-11 10 -3 6 -1 10 4 10 6 0 11 -4 11 -10z m-354 -25 c-26 -19 -42 -19 -26 0 7
8 20 15 29 15 13 -1 13 -3 -3 -15z m-2506 2 c0 -2 -10 -12 -22 -23 l-23 -19
19 23 c18 21 26 27 26 19z m105 -15 c-3 -3 -11 0 -18 7 -9 10 -8 11 6 5 10 -3
15 -9 12 -12z m184 2 c10 -9 -35 -3 -49 6 -11 8 -7 9 15 4 17 -4 32 -8 34 -10z
m2552 -18 c-14 -36 -22 -33 -9 5 6 16 12 28 14 26 3 -2 0 -16 -5 -31z m59 24
c0 -5 -2 -10 -4 -10 -3 0 -8 5 -11 10 -3 6 -1 10 4 10 6 0 11 -4 11 -10z
m-2510 -10 c8 -5 11 -10 5 -10 -5 0 -17 5 -25 10 -8 5 -10 10 -5 10 6 0 17 -5
25 -10z m-350 -9 c0 -5 -11 -16 -25 -25 -29 -19 -32 -14 -7 13 19 21 32 26 32
12z m105 -1 c3 -6 -1 -7 -9 -4 -18 7 -21 14 -7 14 6 0 13 -4 16 -10z m172 -27
c-7 -6 -67 9 -67 17 0 5 16 3 35 -3 19 -6 33 -12 32 -14z m2098 17 c-3 -5 -14
-10 -23 -10 -15 0 -15 2 -2 10 20 13 33 13 25 0z m472 -16 c2 -13 1 -15 -4 -4
-3 8 -11 19 -17 23 -7 6 -6 7 4 4 8 -2 16 -12 17 -23z m-2717 -16 c10 -6 7 -7
-10 -2 -14 3 -32 11 -40 16 -10 6 -7 7 10 2 14 -3 32 -11 40 -16z m3047 -30
c-27 -21 -31 -17 -16 15 9 20 14 23 25 14 10 -10 8 -15 -9 -29z m-3102 14 c-3
-3 -11 0 -18 7 -9 10 -8 11 6 5 10 -3 15 -9 12 -12z m172 12 c-3 -3 -12 -4
-19 -1 -8 3 -5 6 6 6 11 1 17 -2 13 -5z m2633 -19 c0 -8 -2 -15 -4 -15 -2 0
-6 7 -10 15 -3 8 -1 15 4 15 6 0 10 -7 10 -15z m-2735 -16 c5 -5 -5 -4 -23 2
-17 6 -32 13 -32 16 0 7 43 -8 55 -18z m62 15 c-3 -3 -12 -4 -19 -1 -8 3 -5 6
6 6 11 1 17 -2 13 -5z m110 0 c-3 -3 -12 -4 -19 -1 -8 3 -5 6 6 6 11 1 17 -2
13 -5z m2106 -40 c-10 -19 -19 -31 -21 -25 -7 21 -23 11 -21 -11 4 -25 -7 -48
-22 -48 -18 0 -9 57 14 77 18 17 56 42 64 43 2 0 -5 -16 -14 -36z m444 0 c2
-13 1 -15 -4 -4 -3 8 -11 19 -17 23 -7 6 -6 7 4 4 8 -2 16 -12 17 -23z m-2660
10 c-3 -3 -12 -4 -19 -1 -8 3 -5 6 6 6 11 1 17 -2 13 -5z m110 0 c-3 -3 -12
-4 -19 -1 -8 3 -5 6 6 6 11 1 17 -2 13 -5z m292 -21 c-13 -15 -11 -16 16 -10
24 6 27 5 12 -4 -10 -6 -25 -8 -33 -5 -8 3 -14 1 -14 -4 0 -6 -8 -10 -17 -10
-14 0 -12 4 7 25 26 28 51 35 29 8z m-372 -19 c-3 -3 -12 -4 -19 -1 -8 3 -5 6
6 6 11 1 17 -2 13 -5z m40 -10 c-3 -3 -12 -4 -19 -1 -8 3 -5 6 6 6 11 1 17 -2
13 -5z m2965 -46 c-6 -6 -15 -9 -18 -5 -4 3 -4 14 0 23 5 13 9 15 18 6 9 -9 9
-15 0 -24z m-3032 2 c20 -6 21 -8 5 -8 -11 0 -29 3 -40 8 -25 11 1 11 35 0z
m2810 -15 c0 -8 -4 -15 -9 -15 -5 0 -11 7 -15 15 -3 9 0 15 9 15 8 0 15 -7 15
-15z m-2859 -13 c-7 -2 -18 1 -23 6 -8 8 -4 9 13 5 13 -4 18 -8 10 -11z m106
12 c-3 -3 -12 -4 -19 -1 -8 3 -5 6 6 6 11 1 17 -2 13 -5z m2757 -34 c8 0 19
-7 23 -15 7 -13 12 -13 36 0 15 7 27 11 27 7 0 -3 7 4 16 16 11 15 25 22 50
22 l34 0 -22 -25 c-12 -14 -27 -25 -34 -25 -7 0 -17 -6 -21 -14 -4 -8 -18 -16
-31 -18 -12 -1 -21 -7 -20 -13 3 -11 45 -13 102 -3 34 6 38 5 33 -12 -3 -13
-1 -17 9 -13 8 3 14 9 14 14 0 5 5 8 12 7 7 -2 15 11 18 27 4 21 7 25 12 14 3
-8 2 -35 -2 -59 -4 -24 -6 -50 -3 -57 3 -7 -2 -24 -11 -38 -22 -33 -20 -42 4
-20 17 16 20 16 20 2 0 -8 5 -17 11 -19 7 -2 7 -12 -2 -31 -14 -31 -9 -40 15
-31 13 5 14 9 6 14 -18 11 -3 30 17 23 13 -5 15 -2 10 13 -5 14 -2 12 13 -6
23 -30 25 -40 6 -40 -17 0 -21 -5 -30 -42 -5 -21 -3 -28 9 -28 8 0 15 9 15 20
0 28 19 25 30 -6 14 -37 12 -70 -5 -88 -8 -8 -15 -17 -15 -20 0 -3 7 -3 15 0
11 5 15 -1 15 -20 0 -15 6 -26 14 -26 9 0 12 -11 10 -36 -3 -38 -9 -49 -27
-49 -13 -1 -14 -18 -2 -55 7 -22 6 -23 -9 -11 -13 11 -19 11 -31 1 -12 -10
-15 -9 -15 5 0 14 -3 14 -26 -4 -15 -12 -34 -21 -43 -21 -11 1 -8 5 9 16 24
14 24 15 3 11 -13 -3 -23 0 -23 6 0 8 -3 8 -11 0 -8 -8 -18 -3 -37 16 -15 15
-35 31 -45 34 -23 8 -11 33 23 50 13 7 27 23 30 37 6 25 27 34 120 49 3 1 11
15 19 32 11 24 11 33 1 42 -10 9 -11 7 -5 -10 5 -17 2 -23 -9 -23 -10 0 -13
-6 -10 -15 4 -8 1 -15 -5 -15 -7 0 -14 7 -18 16 -6 15 -8 15 -20 -2 -12 -16
-13 -16 -13 -1 0 20 -3 20 -53 6 -31 -8 -38 -14 -34 -30 5 -20 -8 -36 -17 -20
-3 5 -26 12 -51 15 -24 4 -47 12 -51 17 -3 6 0 10 7 8 35 -4 90 2 85 10 -4 5
-22 8 -41 7 -19 -2 -35 1 -35 6 0 5 -9 7 -19 3 -23 -7 -39 14 -20 26 9 6 4 8
-16 3 -20 -4 -26 -3 -17 4 11 8 11 10 -1 15 -10 4 -18 -2 -22 -16 -6 -19 -8
-16 -16 19 -10 41 -41 65 -55 42 -3 -5 -12 -1 -19 9 -7 10 -11 21 -8 25 8 14
-27 40 -47 35 -26 -7 -46 20 -52 68 -5 37 -5 38 5 13 12 -31 19 -33 47 -18 18
10 19 23 5 65 l-7 20 17 -20 c9 -11 20 -19 24 -18 3 1 7 -7 7 -18 0 -10 -4
-19 -9 -19 -5 0 -4 -7 3 -15 20 -25 30 -17 25 20 -4 33 -3 34 25 29 23 -5 34
-1 54 21 15 16 32 25 41 21 27 -10 16 11 -19 38 -22 16 -49 27 -73 28 -35 1
-34 2 12 7 l50 7 -34 10 c-19 5 -36 15 -38 21 -3 7 13 3 36 -8 22 -10 47 -19
55 -19z m-3010 6 c-3 -8 -13 -17 -22 -21 -13 -5 -13 -2 3 15 21 24 26 25 19 6z
m3212 -32 c-41 -35 -52 -39 -73 -26 -9 5 6 18 45 39 31 16 59 28 62 26 3 -3
-13 -20 -34 -39z m-3090 18 c-10 -2 -22 0 -28 6 -6 6 0 7 19 4 21 -5 23 -7 9
-10z m51 -8 c-3 -3 -12 -4 -19 -1 -8 3 -5 6 6 6 11 1 17 -2 13 -5z m2703 -8
c0 -2 -8 -10 -17 -17 -16 -13 -17 -12 -4 4 13 16 21 21 21 13z m-558 -28 c-7
-7 -12 -8 -12 -2 0 14 12 26 19 19 2 -3 -1 -11 -7 -17z m-2175 6 c-3 -3 -12
-4 -19 -1 -8 3 -5 6 6 6 11 1 17 -2 13 -5z m-27 -30 c0 -2 -7 -4 -15 -4 -8 0
-15 4 -15 10 0 5 7 7 15 4 8 -4 15 -8 15 -10z m107 10 c-3 -3 -12 -4 -19 -1
-8 3 -5 6 6 6 11 1 17 -2 13 -5z m-50 -20 c-3 -3 -12 -4 -19 -1 -8 3 -5 6 6 6
11 1 17 -2 13 -5z m40 -10 c-3 -3 -12 -4 -19 -1 -8 3 -5 6 6 6 11 1 17 -2 13
-5z m2083 2 c0 -6 -49 -108 -63 -131 -7 -11 -21 -21 -32 -23 -11 -2 -39 -13
-62 -24 -40 -20 -43 -20 -67 -4 -28 18 -35 56 -11 56 14 0 78 32 102 52 7 5
21 7 32 3 16 -5 19 -3 15 9 -7 18 42 65 69 66 9 0 17 -2 17 -4z m1000 -38 c0
-16 -3 -19 -11 -11 -6 6 -8 16 -5 22 11 17 16 13 16 -11z m-970 -1 c0 -18 -27
-53 -35 -45 -4 3 1 18 10 32 19 29 25 32 25 13z m617 -209 c-3 -7 -5 -2 -5 12
0 14 2 19 5 13 2 -7 2 -19 0 -25z m-3571 -12 c8 -8 14 -21 13 -28 0 -10 -2
-10 -6 0 -2 6 -11 12 -19 12 -8 0 -14 7 -14 15 0 19 7 19 26 1z m4047 -36 c3
-11 1 -18 -4 -14 -5 3 -9 12 -9 20 0 20 7 17 13 -6z m-3350 -5 c-3 -9 -8 -14
-10 -11 -3 3 -2 9 2 15 9 16 15 13 8 -4z m82 -25 c-3 -5 -12 -10 -18 -10 -7 0
-6 4 3 10 19 12 23 12 15 0z m479 -15 c11 -8 15 -15 10 -15 -6 0 -19 7 -30 15
-10 8 -14 14 -9 14 6 0 19 -6 29 -14z m1092 -25 c170 -42 165 -40 158 -51 -3
-5 -10 -6 -16 -3 -7 5 -9 1 -5 -9 4 -11 -1 -20 -14 -27 -11 -6 -17 -16 -13
-21 3 -6 -3 -17 -15 -25 -12 -9 -18 -20 -15 -26 4 -7 2 -8 -5 -4 -6 4 -8 12
-5 18 5 7 -2 9 -20 6 -14 -3 -26 -1 -26 3 0 5 -4 9 -9 9 -5 0 -45 36 -88 81
-96 99 -91 93 -72 86 10 -3 75 -20 145 -37z m498 26 c-3 -8 -13 -17 -22 -21
-13 -5 -13 -2 3 15 21 24 26 25 19 6z m-95 -10 c9 -11 8 -15 -5 -20 -12 -5
-15 -2 -10 10 4 12 2 15 -9 10 -8 -3 -15 -1 -15 4 0 15 26 12 39 -4z m931 -21
c7 -8 8 -15 2 -15 -5 0 -15 7 -22 15 -7 8 -8 15 -2 15 5 0 15 -7 22 -15z m65
-15 c3 -5 2 -10 -4 -10 -5 0 -13 5 -16 10 -3 6 -2 10 4 10 5 0 13 -4 16 -10z
m-3465 -28 c0 -5 -6 -9 -12 -10 -7 0 -63 -5 -124 -10 -62 -5 -117 -12 -122
-16 -6 -3 -13 -2 -16 3 -8 13 30 21 104 21 36 1 83 5 105 9 55 12 65 12 65 3z
m415 -12 c3 -5 1 -10 -4 -10 -6 0 -11 5 -11 10 0 6 2 10 4 10 3 0 8 -4 11 -10z
m93 3 c-16 -2 -40 -2 -55 0 -16 2 -3 4 27 4 30 0 43 -2 28 -4z m2767 -23 c10
-11 16 -20 13 -20 -3 0 -13 9 -23 20 -10 11 -16 20 -13 20 3 0 13 -9 23 -20z
m58 -80 c-6 -6 -33 30 -33 43 0 5 9 -1 19 -14 11 -13 17 -26 14 -29z m-2936
-76 c7 3 13 0 14 -7 2 -37 11 -63 26 -74 15 -12 15 -13 1 -13 -9 0 -20 5 -23
10 -3 6 -12 10 -18 10 -7 0 -6 -4 3 -10 13 -9 13 -11 0 -20 -11 -8 -8 -9 13
-4 17 4 27 2 27 -6 0 -6 5 -8 11 -5 6 4 5 -2 -3 -14 -7 -12 -17 -21 -23 -21
-5 0 -3 -4 5 -10 12 -7 10 -12 -9 -29 -31 -27 -14 -27 18 0 16 13 21 23 14 27
-7 5 -6 12 5 22 14 13 15 12 9 -2 -3 -9 -1 -19 6 -21 8 -3 6 -11 -7 -26 -11
-11 -14 -21 -8 -21 6 0 12 6 15 13 2 6 8 8 13 4 5 -5 -7 -21 -25 -38 -19 -16
-29 -29 -24 -29 6 0 16 7 23 15 7 8 20 15 29 15 11 0 5 -10 -18 -30 -18 -17
-29 -30 -24 -30 6 0 16 7 23 15 7 8 20 15 28 15 11 0 5 -11 -18 -35 -19 -19
-30 -35 -24 -35 5 0 16 9 24 20 8 11 20 20 28 20 10 0 10 -4 -2 -16 -9 -8 -16
-21 -15 -27 0 -9 2 -8 6 1 2 6 11 12 19 12 9 0 12 -5 8 -11 -3 -6 -2 -14 4
-18 14 -9 -7 -53 -28 -58 -13 -4 -13 -3 0 6 8 6 11 11 6 11 -5 0 -3 7 4 15 7
9 10 18 7 21 -3 3 -13 -8 -23 -25 -10 -17 -22 -31 -26 -31 -12 0 -10 13 8 38
8 12 11 22 5 22 -5 0 -12 -8 -15 -18 -3 -9 -15 -23 -26 -30 -20 -12 -20 -11
-10 8 17 32 4 37 -21 9 -16 -18 -20 -19 -16 -6 6 15 3 17 -15 11 -17 -5 -20
-3 -15 10 8 19 -4 21 -22 4 -14 -13 -14 -10 6 39 4 10 -7 2 -25 -17 -26 -29
-31 -31 -32 -16 0 18 -1 18 -19 2 -15 -13 -20 -14 -24 -4 -3 11 -8 11 -26 0
-23 -13 -28 -3 -9 16 7 7 8 12 2 12 -5 0 -16 -9 -24 -20 -17 -23 -32 -27 -24
-5 8 20 -3 19 -24 -1 -10 -11 -17 -13 -20 -5 -2 6 -10 11 -18 11 -8 0 -14 5
-14 10 0 6 -9 5 -22 -3 -13 -8 -43 -13 -68 -12 -25 1 -49 -1 -55 -4 -5 -3 -25
-6 -44 -7 l-34 -1 22 19 c27 21 15 24 -13 3 -24 -18 -50 -20 -39 -2 4 6 -5 4
-20 -5 -30 -20 -41 -23 -32 -8 10 16 -12 12 -29 -5 -8 -8 -21 -15 -28 -15 -18
0 51 43 76 47 12 2 33 5 48 7 14 2 32 7 39 11 6 4 30 9 53 10 39 2 54 6 103
25 24 10 39 -2 27 -22 -4 -7 -3 -8 5 -4 6 4 10 15 9 24 -4 21 69 41 159 45 34
2 65 6 69 10 4 4 22 7 41 7 l34 0 -7 57 c-3 32 -12 91 -20 133 -25 135 -25
137 -3 82 15 -35 27 -51 36 -48z m2933 56 c0 -5 -5 -10 -11 -10 -5 0 -7 5 -4
10 3 6 8 10 11 10 2 0 4 -4 4 -10z m57 -35 c9 -19 20 -35 25 -35 4 0 8 -4 8
-10 0 -20 -31 4 -46 36 -9 19 -21 31 -27 27 -6 -3 -7 -1 -3 5 12 20 26 13 43
-23z m403 16 c0 -20 -17 -37 -27 -28 -7 8 7 47 18 47 5 0 9 -9 9 -19z m-2495
-21 c21 -14 25 -20 13 -20 -10 0 -18 5 -18 10 0 6 -9 10 -19 10 -11 0 -23 5
-26 10 -10 17 18 11 50 -10z m2135 -15 c0 -5 -5 -3 -10 5 -5 8 -10 20 -10 25
0 6 5 3 10 -5 5 -8 10 -19 10 -25z m-80 9 c0 -8 -5 -12 -10 -9 -6 4 -8 11 -5
16 9 14 15 11 15 -7z m392 -36 c-7 -7 -12 -8 -12 -2 0 14 12 26 19 19 2 -3 -1
-11 -7 -17z m-298 -4 c3 -8 2 -12 -4 -9 -6 3 -10 10 -10 16 0 14 7 11 14 -7z
m-2740 -19 c3 -8 11 -15 19 -15 16 0 88 -36 82 -42 -2 -2 -21 -2 -42 0 -31 3
-43 11 -61 38 -12 19 -18 34 -13 34 5 0 11 -7 15 -15z m3053 -7 c-3 -8 -6 -5
-6 6 -1 11 2 17 5 13 3 -3 4 -12 1 -19z m-4597 2 c0 -5 -8 -10 -17 -10 -15 0
-16 2 -3 10 19 12 20 12 20 0z m4660 0 c0 -5 -5 -10 -11 -10 -5 0 -7 5 -4 10
3 6 8 10 11 10 2 0 4 -4 4 -10z m-8698 -31 c-9 -3 -23 -4 -29 -2 -7 3 -13 -1
-13 -8 0 -7 -3 -9 -7 -6 -3 4 2 15 13 25 15 15 23 16 36 8 17 -10 17 -11 0
-17z m3957 -15 c6 15 10 11 23 -23 9 -22 13 -43 8 -46 -5 -3 -11 1 -13 7 -3 8
-6 6 -6 -4 -1 -27 -18 -22 -25 7 -4 14 -11 23 -16 20 -5 -3 -16 5 -24 17 -13
18 -16 19 -16 5 0 -9 -5 -17 -11 -17 -6 0 -8 7 -5 16 4 9 1 23 -5 30 -8 10 -8
14 0 14 6 0 11 -4 11 -10 0 -5 5 -10 11 -10 5 0 7 5 4 10 -3 6 -2 10 4 10 5 0
12 -6 14 -12 3 -7 6 -2 7 12 2 23 3 22 17 -10 13 -30 17 -32 22 -16z m4681 6
c0 -5 -8 -10 -17 -10 -15 0 -16 2 -3 10 19 12 20 12 20 0z m-8130 -10 c0 -5
-2 -10 -4 -10 -3 0 -8 5 -11 10 -3 6 -1 10 4 10 6 0 11 -4 11 -10z m3547 -12
c-3 -8 -6 -5 -6 6 -1 11 2 17 5 13 3 -3 4 -12 1 -19z m-3947 -13 c0 -25 -15
-24 -16 1 -1 13 2 21 7 18 5 -3 9 -11 9 -19z m3897 -7 c-3 -8 -6 -5 -6 6 -1
11 2 17 5 13 3 -3 4 -12 1 -19z m-3910 -60 c-3 -7 -5 -2 -5 12 0 14 2 19 5 13
2 -7 2 -19 0 -25z m-117 -6 c0 -16 -7 -37 -16 -48 -8 -10 -12 -12 -8 -4 4 8 7
29 6 47 -2 18 2 33 8 33 5 0 10 -13 10 -28z m3940 6 c0 -13 -23 -5 -28 10 -2
7 2 10 12 6 9 -3 16 -11 16 -16z m-3990 2 c0 -5 -5 -10 -11 -10 -5 0 -7 5 -4
10 3 6 8 10 11 10 2 0 4 -4 4 -10z m4102 -44 c37 1 37 1 18 -16 -11 -10 -20
-21 -20 -25 0 -5 10 0 21 11 16 14 23 16 26 6 3 -7 11 -18 18 -26 9 -9 12 -28
10 -54 -3 -24 0 -44 7 -48 7 -5 9 0 6 14 -7 25 -2 28 16 9 19 -19 -5 -38 -44
-33 -23 3 -30 0 -26 -10 4 -11 -1 -13 -19 -8 -18 4 -27 1 -31 -10 -3 -9 -11
-13 -18 -9 -6 4 -17 8 -25 8 -15 0 -18 10 -26 88 -3 27 -1 47 5 47 5 0 7 -7 4
-15 -5 -11 1 -15 22 -14 16 1 22 3 12 6 -15 4 -40 49 -44 81 -2 11 0 11 13 0
14 -11 15 -10 9 12 -7 25 -7 25 11 5 12 -14 30 -20 55 -19z m4323 16 c-3 -3
-11 0 -18 7 -9 10 -8 11 6 5 10 -3 15 -9 12 -12z m-8269 -34 c-4 -23 -11 -47
-15 -53 -5 -5 -11 -22 -15 -37 -3 -16 -11 -28 -17 -28 -6 0 -6 7 1 20 6 11 9
24 6 29 -3 4 4 25 14 47 11 21 20 44 20 51 0 7 3 13 6 13 4 0 4 -19 0 -42z
m394 -5 c-15 -23 -89 -77 -97 -69 -3 3 5 10 18 16 13 6 38 26 54 44 32 35 43
39 25 9z m-263 -5 c-3 -8 -6 -5 -6 6 -1 11 2 17 5 13 3 -3 4 -12 1 -19z m-29
-13 c-3 -3 -9 2 -12 12 -6 14 -5 15 5 6 7 -7 10 -15 7 -18z m3995 18 c-7 -2
-19 -2 -25 0 -7 3 -2 5 12 5 14 0 19 -2 13 -5z m90 0 c-7 -2 -21 -2 -30 0 -10
3 -4 5 12 5 17 0 24 -2 18 -5z m-4360 -18 c-3 -9 -8 -14 -10 -11 -3 3 -2 9 2
15 9 16 15 13 8 -4z m4224 -2 c33 -43 35 -53 11 -53 -19 0 -20 2 -8 10 8 5 11
10 5 10 -10 0 -38 50 -28 50 3 0 12 -8 20 -17z m2043 -1 c0 -5 -7 -17 -15 -28
-14 -18 -14 -17 -4 9 12 27 19 34 19 19z m-5900 -32 c0 -5 -2 -10 -4 -10 -3 0
-8 5 -11 10 -3 6 -1 10 4 10 6 0 11 -4 11 -10z m-85 -62 c-4 -29 -13 -66 -21
-83 l-14 -30 6 33 c4 20 1 39 -8 49 -11 15 -11 16 5 10 13 -5 17 -1 17 17 0
14 3 31 6 40 12 31 16 15 9 -36z m-312 -16 c-14 -28 -29 -49 -34 -46 -5 3 -9
9 -9 13 0 11 61 94 65 89 2 -2 -8 -27 -22 -56z m4667 33 c0 -11 -29 -11 -33
-1 -4 10 1 12 14 9 10 -3 19 -7 19 -8z m-4131 -9 c10 -12 8 -13 -8 -9 -12 3
-21 9 -21 14 0 14 16 11 29 -5z m4546 4 c-3 -5 -11 -10 -16 -10 -6 0 -7 5 -4
10 3 6 11 10 16 10 6 0 7 -4 4 -10z m-5169 -28 c-18 -16 -18 -16 -6 6 6 13 14
21 18 18 3 -4 -2 -14 -12 -24z m8684 13 c0 -9 -6 -12 -16 -8 -13 5 -13 7 -2
14 17 11 18 11 18 -6z m-8455 -30 c0 -14 -3 -25 -7 -25 -5 0 -8 11 -8 25 0 14
3 25 8 25 4 0 7 -11 7 -25z m6029 9 c5 -14 4 -15 -9 -4 -17 14 -19 20 -6 20 5
0 12 -7 15 -16z m2466 -4 c0 -4 -6 -10 -14 -13 -10 -4 -12 0 -9 14 5 18 23 18
23 -1z m-8198 -31 c-4 -19 -12 -34 -18 -34 -5 -1 -19 -6 -31 -13 -34 -19 -28
0 7 23 17 11 33 30 36 43 4 13 8 21 11 19 2 -3 0 -20 -5 -38z m2278 31 c0 -5
-7 -10 -16 -10 -8 0 -12 5 -9 10 3 6 10 10 16 10 5 0 9 -4 9 -10z m2085 0 c3
-6 -1 -7 -9 -4 -18 7 -21 14 -7 14 6 0 13 -4 16 -10z m-4275 -7 c0 -5 -14 -16
-30 -25 -38 -21 -40 -9 -2 14 33 20 32 20 32 11z m-630 -7 c0 -2 -8 -10 -17
-17 -16 -13 -17 -12 -4 4 13 16 21 21 21 13z m3 -65 c-22 -34 -43 -58 -46 -54
-7 7 8 34 50 91 41 55 38 27 -4 -37z m487 66 c0 -2 -9 -12 -20 -22 -24 -21
-27 -14 -4 9 15 15 24 20 24 13z m2243 -4 c-7 -2 -21 -2 -30 0 -10 3 -4 5 12
5 17 0 24 -2 18 -5z m-2434 -49 c14 -12 -19 -1 -35 12 -18 14 -18 14 6 3 14
-6 27 -13 29 -15z m134 -42 c-7 -7 -13 -17 -13 -22 0 -14 -31 -20 -51 -10 -20
11 -27 50 -8 50 5 0 7 -5 4 -10 -4 -6 -1 -18 6 -26 10 -13 15 -12 36 7 12 13
23 34 24 48 l1 26 7 -25 c4 -16 2 -30 -6 -38z m367 18 c-20 -13 -33 -13 -25 0
3 6 14 10 23 10 15 0 15 -2 2 -10z m7950 0 c0 -5 -4 -10 -10 -10 -5 0 -10 5
-10 10 0 6 5 10 10 10 6 0 10 -4 10 -10z m294 -24 c3 -26 -9 -36 -16 -14 -3 8
-6 7 -10 -3 -4 -10 1 -15 14 -16 10 -1 22 5 25 12 4 12 7 12 19 0 13 -13 13
-18 0 -42 l-16 -28 5 33 c5 28 3 31 -8 21 -14 -14 -16 -37 -3 -57 4 -7 2 -12
-4 -12 -6 0 -9 -4 -6 -8 7 -11 -72 -49 -119 -58 -27 -5 -36 -4 -31 5 4 6 14
11 22 11 8 0 14 10 14 23 0 12 4 17 8 12 4 -6 18 -11 32 -10 22 0 25 4 22 28
-4 25 -30 42 -58 36 -5 -1 -29 -1 -54 0 l-45 2 42 15 c22 8 67 29 100 47 32
19 59 33 61 31 2 -1 5 -14 6 -28z m-8428 -13 c-26 -26 -30 -43 -11 -46 6 -1
10 7 10 17 0 11 6 21 13 23 6 3 12 -2 12 -11 0 -11 9 -16 30 -16 24 0 33 6 41
26 5 15 12 24 16 21 11 -12 -27 -56 -72 -83 -25 -14 -47 -25 -48 -23 -1 2 -7
13 -13 24 -6 11 -22 23 -35 26 -13 4 -17 7 -8 8 8 1 25 15 37 31 13 17 30 30
39 30 12 0 9 -7 -11 -27z m8064 12 c16 -9 19 -14 9 -15 -8 0 -24 7 -35 15 -24
18 -7 19 26 0z m-8191 -81 c-17 -18 -20 -27 -11 -36 8 -8 17 -7 36 6 15 9 26
12 26 6 0 -5 -11 -17 -25 -26 -20 -13 -28 -14 -40 -4 -8 7 -15 16 -15 21 0 14
45 76 49 67 2 -5 -7 -20 -20 -34z m-79 15 c0 -13 -13 -11 -35 5 -18 13 -18 14
8 9 15 -3 27 -9 27 -14z m304 -199 c-31 -105 -62 -197 -68 -205 -6 -7 -35 -15
-66 -17 -54 -3 -54 -3 -64 30 -7 25 -5 47 9 90 23 74 63 129 129 177 29 21 65
58 80 83 15 24 30 42 33 39 3 -4 -21 -92 -53 -197z m-343 136 c-7 -8 -29 -17
-51 -21 -41 -7 -63 -25 -79 -65 -9 -23 -10 -24 -10 -3 -1 12 2 29 5 38 8 19
55 45 83 45 12 0 26 9 33 20 8 12 16 16 22 10 6 -6 5 -15 -3 -24z m299 29 c0
-2 -21 -18 -47 -36 -25 -18 -42 -26 -38 -18 10 16 41 40 65 51 20 9 20 9 20 3z
m-95 -117 c-58 -65 -59 -66 -34 -19 13 24 32 46 42 48 9 3 17 10 17 16 0 6 3
7 6 4 4 -4 -10 -26 -31 -49z m-65 3 c-16 -31 -32 -36 -18 -7 6 14 15 26 20 26
5 0 4 -9 -2 -19z m2477 13 c-3 -3 -12 -4 -19 -1 -8 3 -5 6 6 6 11 1 17 -2 13
-5z m3544 -197 c-10 -9 -11 -8 -5 6 3 10 9 15 12 12 3 -3 0 -11 -7 -18z
m-1541 -92 c0 -2 -13 -11 -30 -20 -38 -19 -40 -11 -2 9 31 17 32 18 32 11z
m-3230 -60 c0 -6 -86 -45 -98 -45 -19 0 47 34 96 49 1 1 2 -1 2 -4z m-105
-135 c4 -6 -10 -9 -37 -9 l-43 2 35 7 c19 4 36 8 37 9 1 0 5 -3 8 -9z m58 -17
c-7 -2 -19 -2 -25 0 -7 3 -2 5 12 5 14 0 19 -2 13 -5z"/>
<path d="M6760 7265 c0 -5 5 -17 10 -25 5 -8 10 -10 10 -5 0 6 -5 17 -10 25
-5 8 -10 11 -10 5z"/>
<path d="M6682 7205 c-10 -21 -9 -23 6 -18 29 11 43 43 19 43 -8 0 -19 -11
-25 -25z"/>
<path d="M6753 7178 c-4 -7 -13 -23 -20 -35 -10 -20 -10 -21 10 -12 14 6 22
19 22 34 0 29 -1 30 -12 13z"/>
<path d="M6780 7119 c0 -5 5 -7 10 -4 6 3 10 8 10 11 0 2 -4 4 -10 4 -5 0 -10
-5 -10 -11z"/>
<path d="M9097 6554 c-13 -18 -14 -22 -3 -18 8 3 17 13 20 21 10 25 3 23 -17
-3z"/>
<path d="M9105 6510 c-10 -11 -13 -20 -8 -20 13 0 38 29 31 35 -3 3 -13 -4
-23 -15z"/>
<path d="M8785 6500 c3 -5 13 -10 21 -10 8 0 12 5 9 10 -3 6 -13 10 -21 10 -8
0 -12 -4 -9 -10z"/>
<path d="M8945 6420 c-8 -13 4 -53 19 -62 18 -13 64 -9 69 5 3 9 -8 18 -29 26
-19 7 -34 19 -34 27 0 16 -16 19 -25 4z"/>
<path d="M8765 6390 c3 -5 8 -10 11 -10 2 0 4 5 4 10 0 6 -5 10 -11 10 -5 0
-7 -4 -4 -10z"/>
<path d="M9167 6304 c-9 -10 2 -24 18 -24 9 0 12 6 9 15 -6 16 -17 19 -27 9z"/>
<path d="M9130 6290 c0 -5 5 -10 10 -10 6 0 10 5 10 10 0 6 -4 10 -10 10 -5 0
-10 -4 -10 -10z"/>
<path d="M9171 6091 c-8 -5 -9 -11 -3 -15 5 -3 15 1 22 9 14 16 3 20 -19 6z"/>
<path d="M5915 5950 c-3 -5 -1 -10 4 -10 6 0 11 5 11 10 0 6 -2 10 -4 10 -3 0
-8 -4 -11 -10z"/>
<path d="M5948 5746 c-10 -7 -15 -16 -12 -19 4 -3 13 1 21 9 20 19 13 26 -9
10z"/>
<path d="M5887 5733 c-4 -3 -7 -11 -7 -17 0 -6 5 -5 12 2 6 6 9 14 7 17 -3 3
-9 2 -12 -2z"/>
<path d="M5910 5705 c-7 -9 -8 -15 -2 -15 5 0 12 7 16 15 3 8 4 15 2 15 -2 0
-9 -7 -16 -15z"/>
<path d="M5847 5673 c-11 -13 -17 -27 -14 -30 3 -2 13 7 23 21 22 34 15 42 -9
9z"/>
<path d="M5725 5670 c-3 -5 -1 -10 4 -10 6 0 11 5 11 10 0 6 -2 10 -4 10 -3 0
-8 -4 -11 -10z"/>
<path d="M5917 5666 c-4 -10 -1 -13 9 -9 15 6 19 23 5 23 -5 0 -11 -7 -14 -14z"/>
<path d="M5932 5630 c-7 -11 -9 -20 -4 -20 4 0 13 9 20 20 7 11 9 20 4 20 -4
0 -13 -9 -20 -20z"/>
<path d="M4656 5714 c-5 -14 -4 -15 9 -4 17 14 19 20 6 20 -5 0 -12 -7 -15
-16z"/>
<path d="M4630 5680 c0 -5 5 -10 11 -10 5 0 7 5 4 10 -3 6 -8 10 -11 10 -2 0
-4 -4 -4 -10z"/>
<path d="M4677 5666 c-15 -12 -16 -15 -2 -26 20 -17 41 1 29 23 -8 13 -12 13
-27 3z m23 -16 c0 -5 -4 -10 -10 -10 -5 0 -10 5 -10 10 0 6 5 10 10 10 6 0 10
-4 10 -10z"/>
<path d="M4728 5645 c2 -14 6 -25 8 -25 2 0 4 11 4 25 0 14 -4 25 -9 25 -4 0
-6 -11 -3 -25z"/>
<path d="M4607 5626 c-4 -10 -1 -13 9 -9 15 6 19 23 5 23 -5 0 -11 -7 -14 -14z"/>
<path d="M4632 5608 c-17 -17 -15 -24 9 -25 16 -2 18 1 10 11 -6 7 -8 16 -4
19 3 4 4 7 2 7 -3 0 -10 -5 -17 -12z"/>
<path d="M5787 8423 c-6 -34 -2 -41 11 -16 6 11 7 25 3 32 -6 9 -10 4 -14 -16z"/>
<path d="M6475 8428 c4 -13 11 -27 16 -33 5 -5 4 5 -2 23 -12 36 -24 44 -14
10z"/>
<path d="M6385 8418 c2 -24 19 -35 30 -18 3 5 0 17 -9 25 -20 20 -23 19 -21
-7z"/>
<path d="M6240 8420 c0 -5 5 -10 11 -10 5 0 7 5 4 10 -3 6 -8 10 -11 10 -2 0
-4 -4 -4 -10z"/>
<path d="M7152 8405 c-7 -14 -12 -29 -12 -33 1 -10 40 38 40 49 0 18 -17 8
-28 -16z"/>
<path d="M6442 8400 c0 -14 2 -19 5 -12 2 6 2 18 0 25 -3 6 -5 1 -5 -13z"/>
<path d="M8650 8401 c0 -7 7 -19 15 -27 13 -13 15 -13 15 -1 0 8 -7 20 -15 27
-11 9 -15 10 -15 1z"/>
<path d="M5915 8380 c14 -15 20 -17 26 -8 8 13 -7 28 -30 28 -11 0 -10 -5 4
-20z"/>
<path d="M8891 8385 c0 -11 8 -31 19 -45 17 -22 20 -23 25 -7 4 9 11 14 17 11
5 -3 2 8 -6 25 -20 38 -25 39 -18 6 6 -34 -11 -32 -25 3 -9 22 -11 23 -12 7z"/>
<path d="M5700 8375 c-8 -9 -8 -15 -2 -15 12 0 26 19 19 26 -2 2 -10 -2 -17
-11z"/>
<path d="M6826 8359 c12 -13 20 -16 22 -9 3 7 -2 16 -9 21 -25 16 -32 9 -13
-12z"/>
<path d="M6275 8339 c-11 -17 1 -21 15 -4 8 9 8 15 2 15 -6 0 -14 -5 -17 -11z"/>
<path d="M8095 8340 c3 -5 8 -10 11 -10 2 0 4 5 4 10 0 6 -5 10 -11 10 -5 0
-7 -4 -4 -10z"/>
<path d="M6745 8320 c3 -5 8 -10 11 -10 2 0 4 5 4 10 0 6 -5 10 -11 10 -5 0
-7 -4 -4 -10z"/>
<path d="M8646 8315 c-3 -9 0 -15 9 -15 8 0 15 7 15 15 0 8 -4 15 -9 15 -5 0
-11 -7 -15 -15z"/>
<path d="M6245 8300 c-3 -5 1 -10 9 -10 8 0 18 5 21 10 3 6 -1 10 -9 10 -8 0
-18 -4 -21 -10z"/>
<path d="M5940 8290 c-13 -8 -12 -10 3 -10 9 0 17 5 17 10 0 12 -1 12 -20 0z"/>
<path d="M8615 8260 c3 -5 10 -10 16 -10 5 0 9 5 9 10 0 6 -7 10 -16 10 -8 0
-12 -4 -9 -10z"/>
<path d="M7037 8226 c-3 -8 0 -22 7 -32 12 -16 14 -14 18 14 5 33 -14 46 -25
18z"/>
<path d="M7844 8208 l-19 -23 23 19 c21 18 27 26 19 26 -2 0 -12 -10 -23 -22z"/>
<path d="M8284 8202 c-9 -14 -4 -24 32 -58 35 -32 44 -47 44 -75 0 -19 5 -41
11 -49 7 -11 8 -4 4 26 -6 39 14 114 30 114 5 0 -1 -48 -9 -80 0 -3 3 -5 9 -5
14 0 19 92 4 100 -7 5 -16 0 -21 -10 -8 -14 -12 -15 -19 -4 -7 11 -12 12 -28
2 -17 -11 -21 -8 -33 22 -12 30 -15 32 -24 17z"/>
<path d="M8350 8190 c0 -5 5 -10 10 -10 6 0 10 5 10 10 0 6 -4 10 -10 10 -5 0
-10 -4 -10 -10z"/>
<path d="M6866 8175 c-9 -26 -7 -32 5 -12 6 10 9 21 6 23 -2 3 -7 -2 -11 -11z"/>
<path d="M7430 8183 c-84 -8 -258 -38 -252 -44 4 -4 26 -10 49 -14 35 -5 45
-3 60 14 10 12 29 21 45 21 23 0 29 -6 37 -37 6 -21 11 -43 11 -50 0 -8 18
-12 52 -11 l52 0 -42 19 c-23 11 -42 23 -42 28 0 5 17 17 37 26 33 16 37 16
48 2 6 -9 32 -19 56 -22 l44 -6 -45 16 c-25 9 -54 26 -65 38 -12 13 -30 21
-45 20z"/>
<path d="M7740 8144 c-36 -18 -75 -34 -88 -34 -13 0 -20 -4 -17 -10 7 -12 52
-13 57 -2 2 5 29 23 61 41 31 18 57 34 57 37 0 5 4 7 -70 -32z"/>
<path d="M8121 8153 c1 -34 14 -48 47 -51 17 -1 32 2 32 8 0 5 -3 9 -7 8 -15
-4 -53 23 -53 37 0 8 -4 15 -10 15 -5 0 -10 -8 -9 -17z"/>
<path d="M8190 8145 c0 -8 2 -15 4 -15 2 0 6 7 10 15 3 8 1 15 -4 15 -6 0 -10
-7 -10 -15z"/>
<path d="M8777 8143 c-4 -6 -2 -24 4 -40 10 -26 11 -27 21 -9 7 12 7 21 1 25
-6 3 -12 13 -15 21 -3 9 -7 10 -11 3z"/>
<path d="M6841 8124 c0 -11 3 -14 6 -6 3 7 2 16 -1 19 -3 4 -6 -2 -5 -13z"/>
<path d="M7946 8125 c-11 -8 -17 -17 -14 -20 2 -3 13 4 23 15 21 23 18 25 -9
5z"/>
<path d="M6740 8120 c0 -5 5 -10 11 -10 5 0 7 5 4 10 -3 6 -8 10 -11 10 -2 0
-4 -4 -4 -10z"/>
<path d="M8815 8090 c-3 -5 -1 -10 4 -10 6 0 11 5 11 10 0 6 -2 10 -4 10 -3 0
-8 -4 -11 -10z"/>
<path d="M8016 8083 c13 -9 15 -43 2 -43 -5 0 -11 -8 -15 -17 -3 -10 -13 -26
-21 -36 -14 -16 -13 -17 19 -11 85 14 80 10 77 62 -3 46 -4 47 -38 50 -19 1
-30 -1 -24 -5z"/>
<path d="M8234 8051 c11 -11 23 -21 28 -21 14 0 -1 19 -25 31 -22 12 -22 12
-3 -10z"/>
<path d="M7480 8050 c-24 -15 -7 -18 20 -3 14 7 18 13 10 13 -8 0 -22 -4 -30
-10z"/>
<path d="M7560 8039 c0 -5 5 -7 10 -4 6 3 10 8 10 11 0 2 -4 4 -10 4 -5 0 -10
-5 -10 -11z"/>
<path d="M6791 8024 c-1 -26 -40 -77 -41 -54 -1 24 -17 43 -29 35 -9 -5 -9
-10 -1 -20 13 -16 4 -39 -11 -30 -5 4 -9 0 -9 -9 0 -8 6 -16 12 -18 7 -3 13
-11 14 -19 4 -56 4 -55 19 -25 9 16 13 36 11 43 -3 7 -1 13 4 13 6 0 10 5 10
11 0 7 7 17 16 23 10 8 14 22 11 41 -3 20 -5 23 -6 9z"/>
<path d="M8318 8023 c-10 -2 -18 -9 -18 -14 0 -6 10 -5 23 2 37 20 36 23 -5
12z"/>
<path d="M7735 7980 c-3 -5 -1 -10 4 -10 6 0 11 5 11 10 0 6 -2 10 -4 10 -3 0
-8 -4 -11 -10z"/>
<path d="M8010 7940 c-8 -5 -11 -12 -7 -17 4 -4 16 -2 27 5 16 10 20 8 25 -8
4 -11 14 -20 23 -20 11 0 25 -17 36 -42 17 -40 19 -42 29 -21 10 24 4 59 -16
85 -15 19 -95 32 -117 18z"/>
<path d="M9102 7910 c0 -14 2 -19 5 -12 2 6 2 18 0 25 -3 6 -5 1 -5 -13z"/>
<path d="M6641 7904 c0 -11 3 -14 6 -6 3 7 2 16 -1 19 -3 4 -6 -2 -5 -13z"/>
<path d="M7690 7911 c0 -6 5 -13 10 -16 6 -3 10 1 10 9 0 9 -4 16 -10 16 -5 0
-10 -4 -10 -9z"/>
<path d="M8012 7886 c-17 -39 -15 -69 8 -89 26 -22 68 -24 50 -3 -6 8 -18 12
-26 9 -9 -3 -14 2 -14 15 0 11 -6 22 -12 25 -10 3 -10 7 0 20 8 9 12 24 10 33
-2 14 -6 12 -16 -10z"/>
<path d="M7974 7876 c-3 -8 -4 -22 -2 -31 2 -12 7 -7 15 14 6 18 7 31 2 31 -5
0 -12 -6 -15 -14z"/>
<path d="M8668 7885 c0 -6 -2 -23 -4 -40 -3 -39 -8 -66 -28 -138 -21 -74 -20
-87 3 -59 11 12 22 41 26 65 4 23 15 54 23 70 13 22 14 31 5 46 -10 15 -10 21
0 24 8 3 7 10 -5 23 -10 10 -19 14 -20 9z"/>
<path d="M8602 7845 c-10 -12 -10 -15 2 -15 7 0 16 7 20 15 7 19 -5 19 -22 0z"/>
<path d="M8875 7850 c3 -5 8 -10 11 -10 2 0 4 5 4 10 0 6 -5 10 -11 10 -5 0
-7 -4 -4 -10z"/>
<path d="M6760 7820 c0 -5 7 -10 15 -10 8 0 15 5 15 10 0 6 -7 10 -15 10 -8 0
-15 -4 -15 -10z"/>
<path d="M6720 7790 c0 -11 4 -20 9 -20 5 0 7 9 4 20 -3 11 -7 20 -9 20 -2 0
-4 -9 -4 -20z"/>
<path d="M8827 7803 c-4 -3 -7 -13 -7 -22 1 -13 3 -13 11 2 11 19 8 33 -4 20z"/>
<path d="M8172 7781 c3 -24 52 -70 63 -59 3 3 -5 23 -20 43 -14 21 -25 32 -25
24 0 -11 -2 -11 -11 1 -8 12 -9 10 -7 -9z"/>
<path d="M8796 7777 c3 -10 9 -15 12 -12 3 3 0 11 -7 18 -10 9 -11 8 -5 -6z"/>
<path d="M7177 7749 c-16 -16 -27 -34 -24 -41 3 -8 6 -6 6 5 1 9 6 17 11 17 6
0 10 -8 10 -17 0 -15 4 -13 19 7 11 13 17 28 15 32 -2 4 4 11 13 17 17 10 16
10 -2 9 -11 0 -33 -13 -48 -29z"/>
<path d="M8115 7769 c-4 -6 -5 -13 -2 -16 7 -7 27 6 27 18 0 12 -17 12 -25 -2z"/>
<path d="M8517 7762 c-10 -15 -1 -62 12 -62 5 0 11 9 14 20 3 11 1 18 -3 15
-5 -3 -10 5 -12 17 -2 17 -5 19 -11 10z"/>
<path d="M8585 7720 c-9 -16 -22 -30 -30 -30 -8 0 -15 -7 -15 -15 0 -18 37
-20 53 -2 11 10 20 77 11 77 -2 0 -10 -13 -19 -30z"/>
<path d="M7260 7729 c0 -5 5 -7 10 -4 6 3 10 8 10 11 0 2 -4 4 -10 4 -5 0 -10
-5 -10 -11z"/>
<path d="M8780 7730 c0 -5 5 -10 11 -10 5 0 7 5 4 10 -3 6 -8 10 -11 10 -2 0
-4 -4 -4 -10z"/>
<path d="M6632 7710 c0 -14 2 -19 5 -12 2 6 2 18 0 25 -3 6 -5 1 -5 -13z"/>
<path d="M7791 7706 c-10 -12 -8 -13 8 -9 12 3 18 9 15 14 -7 12 -10 11 -23
-5z"/>
<path d="M6750 7682 c0 -4 10 -16 23 -27 12 -11 23 -25 24 -30 1 -6 5 -23 8
-38 6 -21 4 -27 -8 -27 -9 0 -19 5 -22 10 -4 6 -10 8 -15 5 -16 -10 -38 7 -66
50 -29 46 -54 65 -54 40 0 -7 7 -21 16 -30 9 -9 14 -24 11 -37 -3 -11 3 -37
14 -57 10 -19 19 -49 19 -64 0 -22 4 -28 15 -23 8 3 15 1 15 -5 0 -13 67 -41
98 -41 12 0 22 -4 22 -9 0 -5 7 -6 16 -2 17 6 54 -28 54 -52 0 -8 4 -15 9 -15
13 0 22 30 15 52 -5 17 -4 18 15 6 12 -7 21 -18 21 -25 0 -6 4 -14 9 -17 5 -4
7 3 4 15 -5 18 -3 20 16 15 11 -3 29 -8 40 -11 10 -3 23 -15 29 -28 11 -21 11
-21 6 4 l-6 27 64 -23 c35 -12 77 -28 93 -34 29 -11 29 -10 -7 20 -21 17 -38
38 -38 47 0 12 3 13 12 4 20 -20 36 -14 31 11 -6 29 -58 64 -67 45 -3 -9 -9
-7 -21 7 -13 16 -17 17 -24 6 -5 -8 -16 -11 -24 -8 -9 3 -17 1 -20 -6 -4 -13
-48 26 -65 58 -6 11 -12 14 -12 8 -1 -42 -129 20 -129 62 -1 40 12 47 62 35
35 -9 49 -19 60 -41 l14 -29 16 40 c13 33 20 40 44 41 16 0 22 3 13 6 -8 3
-19 12 -23 19 -6 11 -12 11 -33 -2 -23 -16 -26 -16 -39 2 -12 16 -16 17 -24 5
-7 -11 -12 -10 -22 8 -16 25 -29 27 -29 6 0 -18 -12 -19 -27 -4 -5 5 -29 11
-52 12 -22 1 -41 5 -41 8 0 4 -9 9 -20 12 -11 3 -20 2 -20 -1z m110 -92 c0
-18 -3 -19 -20 -8 -11 7 -20 21 -20 31 0 15 3 16 20 7 11 -6 20 -20 20 -30z
m-158 -12 c9 -7 18 -26 22 -43 5 -30 5 -30 -7 -5 -6 14 -21 33 -32 42 -23 20
-7 25 17 6z m388 -158 c-12 -8 -12 -10 -1 -10 8 0 12 -2 9 -5 -3 -3 -13 -2
-22 1 -14 5 -15 9 -4 15 7 5 18 9 23 9 6 0 3 -5 -5 -10z"/>
<path d="M8681 7661 c-8 -5 -9 -11 -3 -15 5 -3 12 1 16 9 6 17 6 18 -13 6z"/>
<path d="M7121 7642 c-11 -20 -10 -22 16 -22 15 0 23 4 17 8 -6 4 -13 14 -16
22 -4 12 -7 10 -17 -8z"/>
<path d="M7402 7620 c0 -14 2 -19 5 -12 2 6 2 18 0 25 -3 6 -5 1 -5 -13z"/>
<path d="M6776 7597 c3 -10 9 -15 12 -12 3 3 0 11 -7 18 -10 9 -11 8 -5 -6z"/>
<path d="M7156 7581 c-4 -6 0 -23 8 -38 l15 -28 0 25 c1 31 -14 57 -23 41z"/>
<path d="M7317 7584 c-3 -4 1 -17 10 -30 20 -32 27 -25 10 9 -8 15 -17 24 -20
21z"/>
<path d="M7360 7521 c0 -35 -16 -49 -25 -22 -3 11 -13 25 -21 32 -26 21 5 -41
38 -76 15 -17 28 -36 28 -43 0 -6 7 -9 15 -6 11 5 12 10 4 26 -9 17 -8 18 9 9
11 -6 23 -16 25 -23 3 -8 6 -5 6 5 1 11 -9 27 -21 38 -22 18 -22 20 -5 30 9 5
15 15 11 21 -4 6 -10 5 -15 -3 -7 -11 -9 -10 -9 3 0 10 -9 22 -20 28 -18 10
-20 8 -20 -19z"/>
<path d="M7747 7507 c-9 -23 4 -66 18 -61 20 8 26 33 15 55 -12 22 -26 25 -33
6z"/>
<path d="M7640 7499 c0 -6 8 -24 17 -39 17 -30 45 -43 69 -33 20 7 17 23 -3
25 -10 0 -24 2 -31 2 -17 1 -35 33 -27 46 3 6 -1 10 -9 10 -9 0 -16 -5 -16
-11z"/>
<path d="M7709 7493 c-13 -16 -12 -17 4 -4 9 7 17 15 17 17 0 8 -8 3 -21 -13z"/>
<path d="M6681 7484 c0 -11 3 -14 6 -6 3 7 2 16 -1 19 -3 4 -6 -2 -5 -13z"/>
<path d="M7587 7473 c-11 -10 -8 -20 7 -26 10 -4 12 0 9 14 -6 21 -7 22 -16
12z"/>
<path d="M8731 7463 c0 -6 -4 -20 -7 -30 -5 -14 -4 -15 5 -7 7 7 11 20 8 30
-3 11 -5 14 -6 7z"/>
<path d="M7640 7435 c0 -8 12 -20 26 -26 38 -14 39 -6 4 20 -24 17 -30 19 -30
6z"/>
<path d="M8017 7435 c-4 -8 -2 -17 3 -20 6 -4 10 3 10 14 0 25 -6 27 -13 6z"/>
<path d="M8665 7419 c-11 -17 1 -21 15 -4 8 9 8 15 2 15 -6 0 -14 -5 -17 -11z"/>
<path d="M8742 7418 c-14 -14 -16 -48 -4 -48 8 0 32 43 32 55 0 9 -16 5 -28
-7z"/>
<path d="M8701 7404 c0 -11 3 -14 6 -6 3 7 2 16 -1 19 -3 4 -6 -2 -5 -13z"/>
<path d="M7407 7370 c3 -11 9 -20 14 -20 5 0 9 9 9 20 0 11 -6 20 -14 20 -9 0
-12 -7 -9 -20z"/>
<path d="M7250 7351 c0 -6 4 -13 10 -16 6 -3 7 1 4 9 -7 18 -14 21 -14 7z"/>
<path d="M7345 7351 c-3 -5 -2 -12 3 -15 5 -3 9 1 9 9 0 17 -3 19 -12 6z"/>
<path d="M7470 7340 c0 -5 5 -10 11 -10 5 0 7 5 4 10 -3 6 -8 10 -11 10 -2 0
-4 -4 -4 -10z"/>
<path d="M8040 7330 c0 -5 5 -10 10 -10 6 0 10 5 10 10 0 6 -4 10 -10 10 -5 0
-10 -4 -10 -10z"/>
<path d="M7295 7302 c-13 -13 -2 -22 25 -20 36 3 41 26 5 26 -13 0 -27 -3 -30
-6z"/>
<path d="M8720 7189 c0 -5 5 -7 10 -4 6 3 10 8 10 11 0 2 -4 4 -10 4 -5 0 -10
-5 -10 -11z"/>
<path d="M7205 7040 c3 -5 8 -10 11 -10 2 0 4 5 4 10 0 6 -5 10 -11 10 -5 0
-7 -4 -4 -10z"/>
<path d="M6656 6962 c-4 -24 -5 -46 -2 -49 12 -12 17 6 14 48 l-3 44 -9 -43z"/>
<path d="M6858 6956 c-4 -18 0 -26 15 -30 26 -6 37 1 36 22 0 11 -3 12 -6 5
-8 -20 -23 -15 -23 7 0 28 -17 25 -22 -4z"/>
<path d="M8785 6950 c3 -5 8 -10 11 -10 2 0 4 5 4 10 0 6 -5 10 -11 10 -5 0
-7 -4 -4 -10z"/>
<path d="M6941 6913 c0 -25 1 -26 9 -8 12 27 12 35 0 35 -5 0 -10 -12 -9 -27z"/>
<path d="M6910 6909 c0 -5 5 -7 10 -4 6 3 10 8 10 11 0 2 -4 4 -10 4 -5 0 -10
-5 -10 -11z"/>
<path d="M6970 6895 c0 -8 5 -15 10 -15 6 0 10 7 10 15 0 8 -4 15 -10 15 -5 0
-10 -7 -10 -15z"/>
<path d="M6645 6880 c3 -5 8 -10 11 -10 2 0 4 5 4 10 0 6 -5 10 -11 10 -5 0
-7 -4 -4 -10z"/>
<path d="M6895 6879 c-4 -6 -5 -12 -2 -15 2 -3 7 2 10 11 7 17 1 20 -8 4z"/>
<path d="M6877 6821 c-3 -12 -1 -21 3 -21 14 0 19 15 11 29 -6 9 -10 7 -14 -8z"/>
<path d="M7925 6831 c-3 -5 -1 -12 5 -16 5 -3 10 1 10 9 0 18 -6 21 -15 7z"/>
<path d="M7950 6830 c0 -5 7 -10 16 -10 8 0 12 5 9 10 -3 6 -10 10 -16 10 -5
0 -9 -4 -9 -10z"/>
<path d="M7006 6805 c-9 -26 -7 -32 5 -12 6 10 9 21 6 23 -2 3 -7 -2 -11 -11z"/>
<path d="M7135 6799 c-4 -6 -5 -13 -2 -16 7 -7 27 6 27 18 0 12 -17 12 -25 -2z"/>
<path d="M7400 6793 c19 -8 46 -15 60 -16 14 0 19 -2 13 -4 -7 -3 -13 -13 -13
-22 0 -22 40 -23 57 -1 14 17 17 31 6 28 -5 -1 -17 3 -29 9 -11 7 -45 14 -75
17 l-54 5 35 -16z"/>
<path d="M7649 6797 c-65 -13 -69 -26 -8 -22 96 6 169 18 175 27 7 11 -101 7
-167 -5z"/>
<path d="M7030 6791 c0 -5 7 -12 16 -15 14 -5 15 -4 4 9 -14 17 -20 19 -20 6z"/>
<path d="M7082 6720 c1 -21 8 -42 15 -44 16 -6 17 10 2 20 -6 3 -9 19 -5 35 3
17 1 29 -5 29 -5 0 -9 -18 -7 -40z"/>
<path d="M7690 6732 c0 -15 7 -38 16 -50 17 -24 6 -29 -27 -12 -13 8 -19 7
-19 0 0 -14 51 -90 60 -90 4 0 10 -14 14 -31 6 -30 8 -31 46 -26 23 3 56 17
75 31 18 14 45 30 58 35 17 7 25 17 25 36 0 15 -5 24 -12 22 -6 -3 -10 -9 -9
-14 1 -6 -10 -8 -24 -5 -18 3 -24 1 -19 -6 4 -7 2 -20 -3 -29 -10 -17 -10 -17
-11 0 0 10 -12 28 -26 41 -23 19 -25 25 -15 44 6 12 8 22 3 22 -6 0 -12 -10
-15 -22 -9 -31 -19 -16 -19 26 0 37 -11 48 -22 21 -9 -24 -45 -18 -56 10 -12
33 -20 32 -20 -3z"/>
<path d="M7555 6700 c-3 -6 -4 -18 -1 -28 7 -23 -3 -36 -41 -51 -35 -14 -37
-33 -2 -24 19 5 20 4 10 -15 -14 -27 -1 -34 38 -21 17 6 42 8 55 5 23 -6 24
-3 28 49 2 32 -1 56 -7 56 -25 4 -41 6 -57 8 -11 0 -15 6 -12 16 7 17 -1 20
-11 5z"/>
<path d="M6807 6693 c-11 -10 -8 -43 3 -43 15 0 24 30 13 41 -5 5 -12 6 -16 2z"/>
<path d="M8023 6685 c-3 -9 -3 -18 0 -22 10 -10 37 6 37 22 0 20 -29 20 -37 0z"/>
<path d="M6850 6651 c0 -5 9 -11 21 -14 16 -4 18 -3 8 9 -13 16 -29 19 -29 5z"/>
<path d="M7080 6640 c0 -5 5 -10 11 -10 5 0 7 5 4 10 -3 6 -8 10 -11 10 -2 0
-4 -4 -4 -10z"/>
<path d="M7266 6614 c-4 -10 -1 -14 6 -12 15 5 23 28 10 28 -5 0 -13 -7 -16
-16z"/>
<path d="M7291 6574 c0 -11 3 -14 6 -6 3 7 2 16 -1 19 -3 4 -6 -2 -5 -13z"/>
<path d="M7230 6547 c-20 -8 -22 -11 -7 -14 9 -3 17 -12 17 -21 1 -15 2 -15
11 1 18 30 8 46 -21 34z"/>
<path d="M7604 6512 c-20 -19 -3 -32 42 -32 16 0 36 -6 43 -12 9 -9 8 -3 -2
18 -19 37 -60 50 -83 26z"/>
<path d="M7535 6510 c-4 -6 2 -9 14 -7 29 4 39 17 13 17 -11 0 -24 -5 -27 -10z"/>
<path d="M7277 6503 c-4 -3 -7 -11 -7 -17 0 -6 5 -5 12 2 6 6 9 14 7 17 -3 3
-9 2 -12 -2z"/>
<path d="M7127 6483 c48 -37 233 -120 233 -104 0 4 -24 18 -52 31 -29 13 -87
38 -128 57 -41 18 -65 25 -53 16z"/>
<path d="M7551 6472 c-7 -13 -11 -26 -8 -28 8 -8 29 25 25 38 -3 8 -9 4 -17
-10z"/>
<path d="M7503 6455 c-9 -25 4 -29 17 -6 7 15 7 21 0 21 -6 0 -13 -7 -17 -15z"/>
<path d="M7530 6416 c0 -8 -6 -17 -12 -20 -19 -7 20 -36 49 -36 13 0 26 0 31
0 18 0 4 21 -30 44 -27 18 -38 21 -38 12z"/>
<path d="M7407 6369 c7 -7 15 -10 18 -7 3 3 -2 9 -12 12 -14 6 -15 5 -6 -5z"/>
<path d="M7635 6350 c-3 -5 1 -10 9 -10 9 0 16 5 16 10 0 6 -4 10 -9 10 -6 0
-13 -4 -16 -10z"/>
<path d="M7703 6333 c9 -2 23 -2 30 0 6 3 -1 5 -18 5 -16 0 -22 -2 -12 -5z"/>
<path d="M7830 6264 c0 -8 -5 -14 -12 -14 -6 0 -9 -2 -7 -5 6 -6 69 17 69 25
0 3 -11 6 -25 6 -15 1 -25 -3 -25 -12z"/>
<path d="M182 6240 c0 -14 2 -19 5 -12 2 6 2 18 0 25 -3 6 -5 1 -5 -13z"/>
<path d="M4541 6174 c0 -11 3 -14 6 -6 3 7 2 16 -1 19 -3 4 -6 -2 -5 -13z"/>
<path d="M173 6135 c0 -27 2 -38 4 -22 2 15 2 37 0 50 -2 12 -4 0 -4 -28z"/>
<path d="M4532 6110 c0 -14 2 -19 5 -12 2 6 2 18 0 25 -3 6 -5 1 -5 -13z"/>
<path d="M9382 5743 c-16 -21 -41 -62 -55 -92 l-26 -53 29 5 c18 4 30 2 33 -6
3 -9 13 -7 37 6 17 9 37 17 43 17 21 0 -39 -53 -93 -81 -62 -32 -51 -40 12 -9
23 11 54 20 69 20 35 0 42 27 27 105 -26 141 -30 145 -76 88z m33 -73 c16 -17
16 -20 3 -15 -9 4 -19 13 -22 21 -7 19 -2 18 19 -6z"/>
<path d="M9888 5333 c6 -2 18 -2 25 0 6 3 1 5 -13 5 -14 0 -19 -2 -12 -5z"/>
<path d="M9839 5289 c13 -11 27 -17 30 -13 7 7 -28 34 -43 34 -6 -1 0 -10 13
-21z"/>
<path d="M9465 5267 c-11 -7 -22 -15 -25 -19 -9 -11 -115 -57 -144 -62 -38 -7
-38 -7 -11 -40 21 -26 33 -31 92 -37 121 -14 267 -11 304 6 l34 16 -50 -8
c-78 -12 -277 -9 -300 4 -19 12 -19 12 5 13 14 0 48 16 75 36 45 33 47 36 20
30 -16 -4 -38 -9 -47 -12 -37 -11 -16 16 39 50 32 20 51 36 43 35 -8 0 -24 -6
-35 -12z"/>
<path d="M10320 5236 c0 -9 30 -14 35 -6 4 6 -3 10 -14 10 -12 0 -21 -2 -21
-4z"/>
<path d="M10103 5181 c0 -18 6 -31 13 -31 7 0 14 -5 16 -12 2 -6 10 -8 17 -4
7 5 10 14 8 20 -4 9 22 16 86 25 51 7 96 16 100 20 5 5 -14 5 -41 1 -54 -9
-147 -7 -178 4 -18 7 -21 4 -21 -23z"/>
<path d="M9830 5144 c35 -7 183 -10 165 -3 -11 4 -56 7 -100 7 -44 0 -73 -2
-65 -4z"/>
<path d="M10058 5123 c6 -2 18 -2 25 0 6 3 1 5 -13 5 -14 0 -19 -2 -12 -5z"/>
</g>
</svg>
